<svg width="20" height="20" viewBox="0 0 20 20" fill="none" xmlns="http://www.w3.org/2000/svg">
<path d="M4.66707 4.28789C4.90744 4.64913 5.19964 4.9722 5.53378 5.24702C5.19964 5.52183 4.90744 5.8449 4.66706 6.20615C4.42669 5.8449 4.13449 5.52183 3.80034 5.24702C4.13448 4.97221 4.42669 4.64913 4.66707 4.28789ZM12.0773 5.64767L12.4116 6.78629C12.9317 8.5585 14.2382 9.97516 15.9455 10.6429C14.2382 11.3106 12.9317 12.7273 12.4116 14.4994L12.0773 15.6381L11.7431 14.4995C11.2229 12.7272 9.91643 11.3105 8.20911 10.6429C9.91643 9.97521 11.2229 8.55853 11.7431 6.7863L12.0773 5.64767ZM4.66706 1.81494C4.46443 1.81494 4.2618 1.93349 4.19242 2.17059L4.028 2.73237C3.73322 3.73964 2.9565 4.53414 1.95618 4.85165C1.57043 4.97409 1.57043 5.51994 1.95618 5.64238C2.9565 5.95989 3.73322 6.75439 4.028 7.76167L4.19242 8.32344C4.2618 8.56054 4.46443 8.67909 4.66706 8.67909C4.86969 8.67909 5.07232 8.56054 5.14171 8.32344L5.30612 7.76167C5.60091 6.75439 6.37762 5.95989 7.37795 5.64238C7.76368 5.51994 7.76368 4.97409 7.37795 4.85165C6.37762 4.53414 5.60091 3.73964 5.30612 2.73237L5.14171 2.17059C5.07232 1.93349 4.86969 1.81494 4.66706 1.81494ZM12.0773 3.10084C11.7737 3.10084 11.4701 3.27812 11.3661 3.63267L10.5437 6.43424C10.1043 7.93136 8.94728 9.11196 7.45756 9.58341L6.33835 9.93759C5.64876 10.1558 5.64874 11.1299 6.33835 11.3481L7.45754 11.7023C8.94727 12.1738 10.1043 13.3544 10.5437 14.8515L11.3661 17.6531C11.4701 18.0076 11.7737 18.1849 12.0773 18.1849C12.3809 18.1849 12.6845 18.0076 12.7885 17.6531L13.611 14.8515C14.0504 13.3544 15.2074 12.1738 16.697 11.7023L17.8163 11.3481C18.5059 11.1299 18.5059 10.1558 17.8163 9.93759L16.697 9.58341C15.2074 9.11195 14.0504 7.93136 13.611 6.43425L12.7885 3.63267C12.6845 3.27812 12.3809 3.10084 12.0773 3.10084Z" fill="#001E37"></path>
</svg>