<svg width="24" height="24" viewBox="0 0 24 24" fill="none" xmlns="http://www.w3.org/2000/svg">
<path d="M3.5166 17.8721V19.3223C3.5166 19.9917 4.06299 20.5381 4.73242 20.5381H19.2695C19.939 20.5381 20.4854 19.9917 20.4854 19.3223V17.8721H21.9473V19.3223C21.9473 20.7988 20.7461 22 19.2695 22H4.73242C3.25586 22 2.05469 20.7988 2.05469 19.3223V17.8721H3.5166ZM11.9502 2C12.5228 2.00012 13.0953 2.21692 13.5303 2.65332L19.4854 8.60742L18.4248 9.66797L12.7207 3.96387V17.6475H11.2207V3.92285L5.54688 9.5957L4.48633 8.53516L10.3691 2.65332C10.8042 2.2168 11.3774 2 11.9502 2Z" fill="#001E37"></path>
</svg>