<svg width="20" height="20" viewBox="0 0 20 20" fill="none" xmlns="http://www.w3.org/2000/svg">
<path d="M4.66621 4.28838C4.90658 4.64962 5.19879 4.97269 5.53293 5.24751C5.19879 5.52232 4.90658 5.84539 4.66621 6.20664C4.42583 5.84539 4.13363 5.52232 3.79949 5.24751C4.13363 4.97269 4.42584 4.64962 4.66621 4.28838ZM12.0765 5.64816L12.4107 6.78678C12.9309 8.55898 14.2373 9.97564 15.9446 10.6434C14.2373 11.311 12.9309 12.7278 12.4107 14.4999L12.0765 15.6386L11.7422 14.5C11.2221 12.7277 9.91557 11.311 8.20826 10.6434C9.91557 9.9757 11.222 8.55902 11.7422 6.78679L12.0765 5.64816ZM4.66621 1.81543C4.46357 1.81543 4.26095 1.93398 4.19157 2.17108L4.02714 2.73285C3.73237 3.74013 2.95564 4.53463 1.95533 4.85214C1.56958 4.97458 1.56958 5.52043 1.95533 5.64287C2.95564 5.96038 3.73237 6.75488 4.02714 7.76216L4.19157 8.32393C4.26095 8.56103 4.46357 8.67958 4.66621 8.67958C4.86884 8.67958 5.07146 8.56103 5.14085 8.32393L5.30527 7.76216C5.60005 6.75488 6.37677 5.96038 7.37709 5.64287C7.76283 5.52043 7.76283 4.97458 7.37709 4.85214C6.37677 4.53463 5.60005 3.74013 5.30527 2.73285L5.14085 2.17108C5.07146 1.93398 4.86884 1.81543 4.66621 1.81543ZM12.0765 3.10133C11.7729 3.10133 11.4693 3.2786 11.3652 3.63316L10.5428 6.43473C10.1034 7.93184 8.94643 9.11244 7.4567 9.58389L6.33749 9.93808C5.6479 10.1563 5.64789 11.1304 6.33749 11.3486L7.45669 11.7028C8.94642 12.1743 10.1034 13.3549 10.5428 14.852L11.3652 17.6536C11.4693 18.0081 11.7729 18.1854 12.0765 18.1854C12.38 18.1854 12.6836 18.0081 12.7877 17.6536L13.6101 14.852C14.0495 13.3549 15.2066 12.1743 16.6962 11.7028L17.8155 11.3486C18.505 11.1304 18.505 10.1563 17.8155 9.93808L16.6962 9.58389C15.2066 9.11244 14.0495 7.93184 13.6101 6.43474L12.7877 3.63316C12.6836 3.2786 12.38 3.10133 12.0765 3.10133Z" fill="#001E37"></path>
</svg>