<svg width="20" height="20" viewBox="0 0 20 20" fill="none" xmlns="http://www.w3.org/2000/svg">
<path d="M9.58301 12.0819H10.4262C11.8042 12.0819 12.9212 10.9649 12.9212 9.58684V4.16211C12.9212 2.78409 11.8042 1.66699 10.4262 1.66699H9.58301C8.20499 1.66699 7.08797 2.78409 7.08797 4.16211V9.58684C7.08797 10.9649 8.20499 12.0819 9.58301 12.0819ZM8.33797 4.16211C8.33797 3.47554 8.89644 2.91699 9.58301 2.91699H10.4262C11.1128 2.91699 11.6712 3.47554 11.6712 4.16211V9.58684C11.6712 10.2734 11.1128 10.8319 10.4262 10.8319H9.58301C8.89644 10.8319 8.33797 10.2734 8.33797 9.58684V4.16211ZM10.6296 14.4808V17.0819H12.9217C13.3383 17.8332 13.3376 18.3319 13.3376 18.3319H6.67163C6.67163 18.3319 6.67079 17.8332 7.08751 17.0819H9.37961V14.5324C6.36928 14.3411 4.38426 11.8786 4.38281 9.16524H5.63281C5.63434 11.1795 7.07439 13.3191 9.74277 13.3191C12.0528 13.3191 14.0766 11.4312 14.3658 9.16524H15.6167C15.3542 11.8796 13.2 14.0608 10.6296 14.4808Z" fill="#001E37"></path>
</svg>