<svg width="335" height="27" viewBox="0 0 335 27" fill="none" xmlns="http://www.w3.org/2000/svg">
<g clip-path="url(#clip0_2132_951)">
<path d="M12.7121 7.57428C11.6266 6.94688 10.3102 6.59833 8.73967 6.59833C7.16919 6.59833 6.1299 6.85394 4.99822 7.36515C3.88964 7.87636 2.94273 8.57346 2.20368 9.47969C1.46463 10.3859 0.979626 11.3851 0.725576 12.5237C0.402241 14.0573 0.448432 15.4283 0.887244 16.6134C1.32606 17.7985 2.01892 18.7512 3.01202 19.4018C4.00512 20.0524 5.18299 20.401 6.52252 20.401C7.86205 20.401 8.41634 20.2151 9.31706 19.8201C10.1947 19.425 10.9568 18.8674 11.5573 18.1005L11.5111 18.3794C11.1878 19.9362 10.6335 21.0749 9.84825 21.772C9.06301 22.4691 7.93134 22.8176 6.45323 22.8176C4.97513 22.8176 4.35155 22.7014 3.56631 22.4691C2.78107 22.2367 2.01892 21.8881 1.25677 21.4234L0.0327148 23.5612C0.864149 24.1189 1.78796 24.5371 2.80416 24.8392C3.82036 25.1413 4.95203 25.2807 6.19918 25.2807C8.39324 25.2807 10.1485 24.7927 11.5111 23.7703C12.8737 22.7479 13.7976 21.0981 14.2826 18.7512L15.1602 14.6615C15.5066 12.9884 15.4604 11.5478 14.9985 10.3627C14.5366 9.15438 13.7514 8.22491 12.689 7.57428H12.7121ZM12.3657 14.0341C12.0885 15.2192 11.5111 16.1719 10.5873 16.8922C9.68659 17.6126 8.6011 17.9611 7.33086 17.9611C6.06061 17.9611 5.6218 17.752 4.99822 17.3337C4.37465 16.9155 3.93583 16.3345 3.68179 15.591C3.45083 14.8474 3.42774 13.9876 3.6356 13.0582C3.91274 11.8498 4.51322 10.8971 5.41394 10.1768C6.33775 9.45646 7.40014 9.1079 8.64729 9.1079C9.89444 9.1079 10.3794 9.31704 11.003 9.7353C11.6266 10.1536 12.0654 10.7345 12.3195 11.4781C12.5735 12.2216 12.5735 13.0582 12.3657 14.0341Z" fill="#001E37"></path>
<path d="M27.6316 14.2897H27.6085C27.1004 16.7063 25.7378 17.9379 23.5668 17.9379C21.3958 17.9379 21.442 17.5429 20.9108 16.776C20.3796 16.0092 20.2642 14.9171 20.5644 13.5461L21.927 7.06307H18.9939L17.6775 13.3138C17.3772 14.7544 17.4234 16.0092 17.8161 17.0781C18.2087 18.147 18.8784 18.9603 19.8484 19.5645C20.8185 20.1454 21.9732 20.4475 23.3589 20.4475C25.4375 20.4475 27.0542 19.9363 28.209 18.8674C29.3637 17.8217 30.1028 16.4507 30.4492 14.8009L32.0659 7.08631H29.1328L27.6316 14.2897Z" fill="#001E37"></path>
<path d="M32.3892 19.9595H35.2992L38.0245 7.06307H35.1145L32.3892 19.9595Z" fill="#001E37"></path>
<path d="M38.2554 1.57921L35.4378 5.13444H38.2323L42.3433 1.57921H38.2554Z" fill="#001E37"></path>
<path d="M51.3507 7.59751C50.2652 6.94688 48.9488 6.59833 47.3783 6.59833C45.8078 6.59833 44.7685 6.85394 43.6599 7.36515C42.5283 7.87636 41.6044 8.57346 40.8654 9.47969C40.1263 10.3627 39.6413 11.3851 39.3873 12.5237C39.064 14.0573 39.1101 15.4283 39.549 16.6134C39.9878 17.7985 40.6806 18.7279 41.6737 19.4018C42.6668 20.0757 43.8447 20.401 45.1842 20.401C46.5238 20.401 47.2166 20.1686 48.1635 19.7271C49.1104 19.2856 49.8726 18.635 50.4731 17.7752L50.0112 19.9363H52.7364L53.845 14.6847C54.1914 13.0117 54.1452 11.571 53.6833 10.3859C53.2214 9.17762 52.4362 8.24814 51.3738 7.59751H51.3507ZM50.935 14.0341C50.6578 15.2192 50.0805 16.1719 49.1566 16.8922C48.2559 17.6126 47.1704 17.9611 45.9002 17.9611C44.6299 17.9611 44.1911 17.752 43.5676 17.3337C42.944 16.9155 42.5052 16.3345 42.2511 15.591C42.0202 14.8474 41.9971 13.9876 42.2049 13.0582C42.4821 11.8498 43.0825 10.8971 43.9833 10.1768C44.9071 9.45646 45.9695 9.1079 47.2166 9.1079C48.4638 9.1079 48.9488 9.31704 49.5723 9.7353C50.1959 10.1536 50.6347 10.7345 50.8888 11.4781C51.1428 12.2216 51.1428 13.0582 50.935 14.0341Z" fill="#001E37"></path>
<path d="M71.305 6.80746C70.8431 6.71451 70.3119 6.66804 69.7576 6.66804C68.1178 6.66804 66.7321 7.0863 65.5773 7.92283C64.4226 8.75935 63.6604 10.1536 63.2678 12.059L61.6049 19.9595H64.5149L66.0854 12.5469C66.3395 11.3619 66.7783 10.5021 67.4019 9.9909C68.0254 9.47969 68.8569 9.20085 69.8731 9.20085C70.8893 9.20085 71.1202 9.31703 71.6514 9.52616L72.6676 7.24896C72.2519 7.06307 71.79 6.92364 71.3281 6.80746H71.305Z" fill="#001E37"></path>
<path d="M85.9012 10.9901H85.9474C86.1322 10.1303 86.0398 9.36351 85.6703 8.71288C85.3008 8.03901 84.7003 7.5278 83.8688 7.15601C83.0374 6.78423 82.0212 6.59833 80.7972 6.59833C79.5731 6.59833 77.9795 6.85394 76.7786 7.36515C75.5545 7.87636 74.5614 8.61993 73.7531 9.5494C72.9447 10.4789 72.4135 11.5942 72.1595 12.8723C71.8592 14.3362 71.9747 15.6374 72.4366 16.776C72.8985 17.9146 73.7069 18.7976 74.8155 19.4483C75.924 20.0989 77.2867 20.4242 78.8802 20.4242C80.4738 20.4242 82.5293 20.006 84.0998 19.1927L83.2453 16.9155C81.7672 17.6126 80.3583 17.9379 79.0188 17.9379C77.6793 17.9379 76.8709 17.7055 76.1781 17.1943C75.4852 16.7063 75.0464 15.986 74.9309 15.0565C75.3235 15.0565 75.7855 15.0565 76.3167 15.0565C82.1367 15.0565 85.3239 13.6856 85.9012 10.9668V10.9901ZM77.0095 10.0839C78.0026 9.38675 79.2267 9.06143 80.6355 9.06143C82.0443 9.06143 82.206 9.20085 82.6679 9.47969C83.1067 9.75853 83.2684 10.1768 83.1529 10.7112C82.9912 11.4083 82.3445 11.966 81.2129 12.3378C80.0812 12.7096 78.5107 12.8955 76.5014 12.8955H75.0926C75.3697 11.7104 75.9933 10.781 77.0095 10.0839Z" fill="#001E37"></path>
<path d="M99.7125 7.57428V7.62075C98.627 6.94688 97.2874 6.59833 95.6939 6.59833C94.1003 6.59833 91.9293 7.13278 90.5205 8.20167C89.1117 9.27056 88.2109 10.7577 87.8183 12.6167L85.3009 24.4674H88.2109L89.6429 17.6126C90.0817 18.4956 90.7514 19.1694 91.606 19.6574C92.4836 20.1454 93.4998 20.401 94.6776 20.401C95.8555 20.401 97.0796 20.1454 98.142 19.6342C99.2043 19.123 100.105 18.4026 100.844 17.4964C101.583 16.5902 102.068 15.5677 102.299 14.4059C102.599 12.8955 102.53 11.5478 102.068 10.3627C101.606 9.17761 100.821 8.24814 99.7125 7.57428ZM99.4815 14.0341C99.2044 15.2192 98.627 16.1719 97.7032 16.8922C96.8024 17.6126 95.7169 17.9611 94.4467 17.9611C93.1765 17.9611 92.7376 17.752 92.1141 17.3337C91.4905 16.9155 91.0517 16.3345 90.7976 15.591C90.5667 14.8474 90.5436 13.9876 90.7514 13.0582C91.0286 11.8498 91.6291 10.8971 92.5298 10.1768C93.4536 9.45646 94.516 9.1079 95.7631 9.1079C97.0103 9.1079 97.4953 9.31704 98.1189 9.7353C98.7424 10.1536 99.1813 10.7345 99.4353 11.4781C99.6893 12.2216 99.6894 13.0582 99.4815 14.0341Z" fill="#001E37"></path>
<path d="M108.442 9.38674H108.489C108.881 9.1079 109.436 8.96848 110.198 8.96848C110.96 8.96848 111.676 9.08467 112.323 9.31703C112.969 9.5494 113.57 9.89795 114.101 10.3395L115.602 8.64317C114.932 7.99254 114.17 7.48133 113.269 7.15601C112.369 6.80746 111.376 6.6448 110.29 6.6448C109.205 6.6448 107.75 6.92364 106.803 7.50456C105.856 8.08548 105.302 8.89877 105.094 9.94443C104.909 10.8971 105.094 11.7569 105.648 12.5005C106.202 13.2441 107.195 13.8017 108.604 14.1735L109.828 14.4756C110.59 14.6615 111.168 14.8706 111.514 15.0798C111.884 15.2889 112.092 15.5213 112.184 15.7536C112.276 15.986 112.276 16.2648 112.23 16.5204C112.161 16.9387 111.907 17.3105 111.468 17.6358C111.029 17.9379 110.383 18.1005 109.528 18.1005C108.673 18.1005 107.634 17.9379 106.895 17.6358C106.156 17.3105 105.44 16.869 104.724 16.2881L103.107 18.1238C103.916 18.8441 104.84 19.425 105.925 19.8433C107.011 20.2616 108.165 20.4707 109.389 20.4707C110.613 20.4707 112.161 20.1454 113.131 19.4715C114.101 18.8209 114.701 18.0076 114.909 17.0316C115.071 16.3345 115.048 15.7072 114.863 15.1262C114.678 14.5453 114.286 14.0109 113.662 13.5461C113.038 13.0814 112.138 12.6864 110.937 12.3611L109.805 12.059C108.881 11.8034 108.304 11.5245 108.027 11.2457C107.773 10.9668 107.68 10.6415 107.75 10.2697C107.819 9.94443 108.05 9.64235 108.442 9.38674Z" fill="#001E37"></path>
<path d="M130.914 8.96848C130.337 8.22491 129.598 7.66722 128.651 7.24896C127.727 6.8307 126.642 6.62157 125.418 6.62157C124.193 6.62157 122.762 6.87717 121.607 7.41162C120.452 7.94606 119.505 8.6664 118.743 9.59588C117.981 10.5253 117.473 11.5942 117.219 12.8258C117.011 13.825 117.011 14.7777 117.219 15.6839C117.427 16.5901 117.819 17.4034 118.397 18.1238C118.974 18.8441 119.736 19.4018 120.66 19.8201C121.584 20.2383 122.669 20.4475 123.893 20.4475C125.117 20.4475 126.572 20.1919 127.704 19.6574C128.859 19.1462 129.806 18.4026 130.568 17.4731C131.33 16.5437 131.838 15.4748 132.069 14.2665C132.277 13.2673 132.277 12.3146 132.069 11.4083C131.861 10.5021 131.469 9.68882 130.891 8.96848H130.914ZM129.228 13.8482C128.974 15.0798 128.374 16.0789 127.427 16.7993C126.48 17.5429 125.348 17.8914 124.032 17.8914C122.715 17.8914 122.23 17.6823 121.561 17.264C120.914 16.8458 120.452 16.2881 120.198 15.5677C119.944 14.8474 119.898 14.0573 120.106 13.1511C120.383 11.9196 120.983 10.9204 121.93 10.2C122.877 9.47969 123.986 9.1079 125.279 9.1079C126.572 9.1079 127.08 9.31704 127.75 9.7353C128.397 10.1536 128.859 10.7112 129.113 11.4316C129.367 12.1519 129.39 12.942 129.205 13.8482H129.228Z" fill="#001E37"></path>
<path d="M137.035 2.53189L133.339 19.9595H136.249L139.945 2.53189H137.035Z" fill="#001E37"></path>
</g>
<line x1="152.5" y1="2.18557e-08" x2="152.5" y2="27" stroke="#001E37" stroke-opacity="0.2"></line>
<path d="M176.44 20V13.78H167.86V20H165.94V6.2H167.86V12.14H176.44V6.2H178.34V20H176.44ZM184.589 20.26C183.549 20.26 182.722 20.0133 182.109 19.52C181.496 19.0133 181.189 18.3467 181.189 17.52C181.189 16.4133 181.736 15.5467 182.829 14.92C183.936 14.2933 185.609 13.8933 187.849 13.72L189.169 13.62C189.102 12.6733 188.822 12 188.329 11.6C187.836 11.1867 187.056 10.98 185.989 10.98C184.616 10.98 183.196 11.34 181.729 12.06C181.729 11.46 181.809 10.86 181.969 10.26C183.356 9.67333 184.742 9.38 186.129 9.38C187.716 9.38 188.916 9.76 189.729 10.52C190.542 11.28 190.949 12.3933 190.949 13.86V18.5H192.689C192.689 19.02 192.622 19.52 192.489 20H189.209V18.06C188.929 18.4867 188.549 18.8667 188.069 19.2C187.602 19.5333 187.069 19.7933 186.469 19.98C185.869 20.1667 185.242 20.26 184.589 20.26ZM189.189 14.94L187.869 15.06C186.256 15.2067 185.042 15.4667 184.229 15.84C183.416 16.2 183.009 16.7067 183.009 17.36C183.009 18.28 183.709 18.74 185.109 18.74C185.829 18.74 186.496 18.5933 187.109 18.3C187.736 17.9933 188.236 17.5933 188.609 17.1C188.996 16.5933 189.189 16.0533 189.189 15.48V14.94ZM199.686 20.28C198.526 20.28 197.506 20.0533 196.626 19.6C195.759 19.1333 195.079 18.4867 194.586 17.66C194.092 16.8333 193.846 15.8867 193.846 14.82C193.846 13.74 194.092 12.7933 194.586 11.98C195.079 11.1667 195.759 10.5333 196.626 10.08C197.506 9.61333 198.526 9.38 199.686 9.38C200.352 9.38 201.019 9.46 201.686 9.62C202.352 9.78 202.972 10.0133 203.546 10.32C203.546 10.8667 203.472 11.42 203.326 11.98C202.806 11.66 202.239 11.4133 201.626 11.24C201.026 11.0533 200.432 10.96 199.846 10.96C199.032 10.96 198.312 11.1267 197.686 11.46C197.059 11.78 196.566 12.2333 196.206 12.82C195.859 13.3933 195.686 14.06 195.686 14.82C195.686 15.58 195.859 16.2533 196.206 16.84C196.566 17.4133 197.059 17.8667 197.686 18.2C198.312 18.52 199.032 18.68 199.846 18.68C201.152 18.68 202.372 18.32 203.506 17.6C203.519 17.9067 203.506 18.2133 203.466 18.52C203.426 18.8133 203.366 19.1133 203.286 19.42C202.792 19.6867 202.232 19.8933 201.606 20.04C200.979 20.2 200.339 20.28 199.686 20.28ZM211.21 20.28C210.01 20.28 208.97 20.0533 208.09 19.6C207.223 19.1467 206.55 18.5133 206.07 17.7C205.59 16.8733 205.35 15.9067 205.35 14.8C205.35 13.7333 205.59 12.7933 206.07 11.98C206.55 11.1667 207.21 10.5333 208.05 10.08C208.903 9.61333 209.89 9.38 211.01 9.38C212.596 9.38 213.836 9.86 214.73 10.82C215.623 11.7667 216.07 13.0933 216.07 14.8V15.52H207.17C207.303 16.5067 207.736 17.28 208.47 17.84C209.216 18.4 210.183 18.68 211.37 18.68C212.85 18.68 214.223 18.3133 215.49 17.58C215.49 17.8733 215.47 18.1733 215.43 18.48C215.39 18.7733 215.336 19.08 215.27 19.4C213.976 19.9867 212.623 20.28 211.21 20.28ZM207.15 14.04H214.33C214.276 13.0133 213.956 12.2267 213.37 11.68C212.796 11.1333 211.996 10.86 210.97 10.86C209.89 10.86 209.016 11.14 208.35 11.7C207.696 12.26 207.296 13.04 207.15 14.04ZM226.267 20V14.22C226.267 13.1133 226.074 12.3 225.687 11.78C225.314 11.26 224.72 11 223.907 11C222.88 11 222.054 11.3733 221.427 12.12C220.814 12.8667 220.507 13.86 220.507 15.1V20H218.707V9.66H220.507V11.86C220.88 11.0733 221.407 10.4667 222.087 10.04C222.78 9.6 223.56 9.38 224.427 9.38C225.307 9.38 226.034 9.60667 226.607 10.06C227.194 10.5 227.594 11.14 227.807 11.98C228.18 11.18 228.727 10.5467 229.447 10.08C230.18 9.61333 230.994 9.38 231.887 9.38C233.074 9.38 233.987 9.77333 234.627 10.56C235.28 11.3467 235.607 12.4733 235.607 13.94V20H233.807V14.22C233.807 13.1 233.62 12.2867 233.247 11.78C232.874 11.26 232.28 11 231.467 11C230.427 11 229.6 11.3733 228.987 12.12C228.374 12.8667 228.067 13.86 228.067 15.1V20H226.267ZM243.767 20.28C242.634 20.28 241.627 20.0533 240.747 19.6C239.88 19.1333 239.2 18.4867 238.707 17.66C238.214 16.8333 237.967 15.8867 237.967 14.82C237.967 13.74 238.214 12.7933 238.707 11.98C239.2 11.1667 239.88 10.5333 240.747 10.08C241.627 9.61333 242.634 9.38 243.767 9.38C244.9 9.38 245.9 9.61333 246.767 10.08C247.647 10.5333 248.334 11.1667 248.827 11.98C249.32 12.7933 249.567 13.74 249.567 14.82C249.567 15.8867 249.314 16.8333 248.807 17.66C248.314 18.4867 247.634 19.1333 246.767 19.6C245.9 20.0533 244.9 20.28 243.767 20.28ZM243.767 18.7C244.54 18.7 245.22 18.5333 245.807 18.2C246.407 17.8667 246.874 17.4067 247.207 16.82C247.554 16.2333 247.727 15.5667 247.727 14.82C247.727 14.06 247.554 13.3933 247.207 12.82C246.874 12.2333 246.407 11.78 245.807 11.46C245.22 11.1267 244.54 10.96 243.767 10.96C242.994 10.96 242.307 11.1267 241.707 11.46C241.12 11.78 240.654 12.2333 240.307 12.82C239.974 13.3933 239.807 14.06 239.807 14.82C239.807 15.5667 239.974 16.2333 240.307 16.82C240.654 17.4067 241.12 17.8667 241.707 18.2C242.307 18.5333 242.994 18.7 243.767 18.7ZM255.884 20.28C255.098 20.28 254.318 20.2 253.544 20.04C252.784 19.8933 252.091 19.6733 251.464 19.38C251.438 18.8067 251.504 18.26 251.664 17.74C252.411 18.0867 253.124 18.3467 253.804 18.52C254.484 18.68 255.218 18.76 256.004 18.76C257.964 18.76 258.944 18.2133 258.944 17.12C258.944 16.6667 258.764 16.3267 258.404 16.1C258.058 15.8733 257.471 15.6933 256.644 15.56L254.484 15.18C253.511 15.0067 252.778 14.68 252.284 14.2C251.791 13.72 251.544 13.1333 251.544 12.44C251.544 11.4667 251.958 10.7133 252.784 10.18C253.624 9.64667 254.771 9.38 256.224 9.38C256.904 9.38 257.604 9.44667 258.324 9.58C259.058 9.71333 259.771 9.93333 260.464 10.24C260.464 10.52 260.444 10.7933 260.404 11.06C260.378 11.3267 260.331 11.5867 260.264 11.84C259.611 11.5333 258.924 11.3 258.204 11.14C257.484 10.9667 256.778 10.88 256.084 10.88C255.658 10.88 255.238 10.9267 254.824 11.02C254.411 11.1 254.064 11.24 253.784 11.44C253.518 11.64 253.384 11.9267 253.384 12.3C253.384 12.6733 253.524 12.96 253.804 13.16C254.098 13.36 254.611 13.5267 255.344 13.66L257.444 14.04C258.591 14.24 259.424 14.5933 259.944 15.1C260.464 15.6067 260.724 16.24 260.724 17C260.724 18.0533 260.304 18.8667 259.464 19.44C258.624 20 257.431 20.28 255.884 20.28ZM273.26 20.28C272.1 20.28 271.08 20.0533 270.2 19.6C269.333 19.1333 268.653 18.4867 268.16 17.66C267.667 16.8333 267.42 15.8867 267.42 14.82C267.42 13.74 267.667 12.7933 268.16 11.98C268.653 11.1667 269.333 10.5333 270.2 10.08C271.08 9.61333 272.1 9.38 273.26 9.38C273.927 9.38 274.593 9.46 275.26 9.62C275.927 9.78 276.547 10.0133 277.12 10.32C277.12 10.8667 277.047 11.42 276.9 11.98C276.38 11.66 275.813 11.4133 275.2 11.24C274.6 11.0533 274.007 10.96 273.42 10.96C272.607 10.96 271.887 11.1267 271.26 11.46C270.633 11.78 270.14 12.2333 269.78 12.82C269.433 13.3933 269.26 14.06 269.26 14.82C269.26 15.58 269.433 16.2533 269.78 16.84C270.14 17.4133 270.633 17.8667 271.26 18.2C271.887 18.52 272.607 18.68 273.42 18.68C274.727 18.68 275.947 18.32 277.08 17.6C277.093 17.9067 277.08 18.2133 277.04 18.52C277 18.8133 276.94 19.1133 276.86 19.42C276.367 19.6867 275.807 19.8933 275.18 20.04C274.553 20.2 273.913 20.28 273.26 20.28ZM284.724 20.28C283.591 20.28 282.584 20.0533 281.704 19.6C280.837 19.1333 280.157 18.4867 279.664 17.66C279.171 16.8333 278.924 15.8867 278.924 14.82C278.924 13.74 279.171 12.7933 279.664 11.98C280.157 11.1667 280.837 10.5333 281.704 10.08C282.584 9.61333 283.591 9.38 284.724 9.38C285.857 9.38 286.857 9.61333 287.724 10.08C288.604 10.5333 289.291 11.1667 289.784 11.98C290.277 12.7933 290.524 13.74 290.524 14.82C290.524 15.8867 290.271 16.8333 289.764 17.66C289.271 18.4867 288.591 19.1333 287.724 19.6C286.857 20.0533 285.857 20.28 284.724 20.28ZM284.724 18.7C285.497 18.7 286.177 18.5333 286.764 18.2C287.364 17.8667 287.831 17.4067 288.164 16.82C288.511 16.2333 288.684 15.5667 288.684 14.82C288.684 14.06 288.511 13.3933 288.164 12.82C287.831 12.2333 287.364 11.78 286.764 11.46C286.177 11.1267 285.497 10.96 284.724 10.96C283.951 10.96 283.264 11.1267 282.664 11.46C282.077 11.78 281.611 12.2333 281.264 12.82C280.931 13.3933 280.764 14.06 280.764 14.82C280.764 15.5667 280.931 16.2333 281.264 16.82C281.611 17.4067 282.077 17.8667 282.664 18.2C283.264 18.5333 283.951 18.7 284.724 18.7ZM298.201 20.28C297.041 20.28 296.021 20.0533 295.141 19.6C294.275 19.1333 293.595 18.4867 293.101 17.66C292.608 16.8333 292.361 15.8867 292.361 14.82C292.361 13.74 292.608 12.7933 293.101 11.98C293.595 11.1667 294.275 10.5333 295.141 10.08C296.021 9.61333 297.041 9.38 298.201 9.38C298.868 9.38 299.535 9.46 300.201 9.62C300.868 9.78 301.488 10.0133 302.061 10.32C302.061 10.8667 301.988 11.42 301.841 11.98C301.321 11.66 300.755 11.4133 300.141 11.24C299.541 11.0533 298.948 10.96 298.361 10.96C297.548 10.96 296.828 11.1267 296.201 11.46C295.575 11.78 295.081 12.2333 294.721 12.82C294.375 13.3933 294.201 14.06 294.201 14.82C294.201 15.58 294.375 16.2533 294.721 16.84C295.081 17.4133 295.575 17.8667 296.201 18.2C296.828 18.52 297.548 18.68 298.361 18.68C299.668 18.68 300.888 18.32 302.021 17.6C302.035 17.9067 302.021 18.2133 301.981 18.52C301.941 18.8133 301.881 19.1133 301.801 19.42C301.308 19.6867 300.748 19.8933 300.121 20.04C299.495 20.2 298.855 20.28 298.201 20.28ZM305.045 20V11.14H303.325C303.299 10.6333 303.359 10.14 303.505 9.66H306.845V20H305.045ZM305.725 7.76C305.365 7.76 305.072 7.65333 304.845 7.44C304.619 7.21333 304.505 6.93333 304.505 6.6C304.505 6.26667 304.619 5.99333 304.845 5.78C305.072 5.55333 305.365 5.44 305.725 5.44C306.085 5.44 306.379 5.55333 306.605 5.78C306.832 5.99333 306.945 6.26667 306.945 6.6C306.945 6.93333 306.832 7.21333 306.605 7.44C306.379 7.65333 306.085 7.76 305.725 7.76ZM310.172 20V9.66H311.932V11.96C312.332 11.1467 312.905 10.5133 313.652 10.06C314.398 9.60667 315.265 9.38 316.252 9.38C317.532 9.38 318.525 9.77333 319.232 10.56C319.938 11.3467 320.292 12.4667 320.292 13.92V20H318.492V14.26C318.492 13.1533 318.265 12.3333 317.812 11.8C317.372 11.2667 316.685 11 315.752 11C314.605 11 313.685 11.3733 312.992 12.12C312.312 12.8533 311.972 13.8333 311.972 15.06V20H310.172ZM326.034 20.26C324.994 20.26 324.168 20.0133 323.554 19.52C322.941 19.0133 322.634 18.3467 322.634 17.52C322.634 16.4133 323.181 15.5467 324.274 14.92C325.381 14.2933 327.054 13.8933 329.294 13.72L330.614 13.62C330.548 12.6733 330.268 12 329.774 11.6C329.281 11.1867 328.501 10.98 327.434 10.98C326.061 10.98 324.641 11.34 323.174 12.06C323.174 11.46 323.254 10.86 323.414 10.26C324.801 9.67333 326.188 9.38 327.574 9.38C329.161 9.38 330.361 9.76 331.174 10.52C331.988 11.28 332.394 12.3933 332.394 13.86V18.5H334.134C334.134 19.02 334.068 19.52 333.934 20H330.654V18.06C330.374 18.4867 329.994 18.8667 329.514 19.2C329.048 19.5333 328.514 19.7933 327.914 19.98C327.314 20.1667 326.688 20.26 326.034 20.26ZM330.634 14.94L329.314 15.06C327.701 15.2067 326.488 15.4667 325.674 15.84C324.861 16.2 324.454 16.7067 324.454 17.36C324.454 18.28 325.154 18.74 326.554 18.74C327.274 18.74 327.941 18.5933 328.554 18.3C329.181 17.9933 329.681 17.5933 330.054 17.1C330.441 16.5933 330.634 16.0533 330.634 15.48V14.94Z" fill="#001E37"></path>
<defs>
<clipPath id="clip0_2132_951">
<rect width="140" height="24" fill="white" transform="translate(0 1.5)"></rect>
</clipPath>
</defs>
</svg>