<svg width="294" height="24" viewBox="0 0 294 24" fill="none" xmlns="http://www.w3.org/2000/svg">
<g clip-path="url(#clip0_150_19711)">
<path d="M11.119 6.62467C10.1696 6.07594 9.01823 5.77109 7.64464 5.77109C6.27105 5.77109 5.36206 5.99464 4.37226 6.44176C3.40267 6.88888 2.57448 7.49859 1.92808 8.2912C1.28169 9.08382 0.857491 9.95773 0.635292 10.9536C0.352494 12.2949 0.392894 13.494 0.776691 14.5305C1.16049 15.567 1.76648 16.4003 2.63508 16.9693C3.50367 17.5384 4.53386 17.8433 5.70545 17.8433C6.87704 17.8433 7.36184 17.6807 8.14963 17.3352C8.91723 16.9897 9.58382 16.5019 10.109 15.8312L10.0686 16.0751C9.78582 17.4368 9.30103 18.4326 8.61423 19.0423C7.92744 19.6521 6.93764 19.9569 5.64485 19.9569C4.35206 19.9569 3.80667 19.8553 3.11987 19.6521C2.43308 19.4488 1.76648 19.144 1.09989 18.7375L0.0292969 20.6073C0.756491 21.095 1.56449 21.4608 2.45328 21.7251C3.34207 21.9893 4.33186 22.1112 5.42266 22.1112C7.34164 22.1112 8.87683 21.6844 10.0686 20.7902C11.2604 19.8959 12.0684 18.453 12.4926 16.4003L13.2602 12.8233C13.5632 11.3601 13.5228 10.1 13.1188 9.0635C12.7148 8.00667 12.028 7.19373 11.0988 6.62467H11.119ZM10.816 12.2746C10.5736 13.3111 10.0686 14.1444 9.26063 14.7744C8.47283 15.4044 7.52344 15.7093 6.41245 15.7093C5.30146 15.7093 4.91766 15.5264 4.37226 15.1606C3.82687 14.7947 3.44307 14.2866 3.22087 13.6363C3.01887 12.9859 2.99867 12.234 3.18047 11.421C3.42287 10.3642 3.94807 9.53094 4.73586 8.90091C5.54385 8.27088 6.47305 7.96603 7.56384 7.96603C8.65463 7.96603 9.07883 8.14894 9.62422 8.51476C10.1696 8.88059 10.5534 9.38867 10.7756 10.039C10.9978 10.6894 10.9978 11.421 10.816 12.2746Z" fill="white"></path>
<path d="M24.168 12.4982H24.1478C23.7034 14.6118 22.5116 15.689 20.6128 15.689C18.7141 15.689 18.7545 15.3435 18.2899 14.6728C17.8253 14.0021 17.7243 13.0469 17.9869 11.8478L19.1787 6.17756H16.6133L15.4619 11.6446C15.1993 12.9046 15.2397 14.0021 15.5831 14.937C15.9265 15.8719 16.5123 16.5832 17.3607 17.1116C18.2091 17.6197 19.2191 17.8839 20.431 17.8839C22.249 17.8839 23.663 17.4368 24.673 16.5019C25.683 15.5873 26.3294 14.3883 26.6324 12.9453L28.0464 6.19788H25.481L24.168 12.4982Z" fill="white"></path>
<path d="M28.3292 17.4571H30.8744L33.2579 6.17756H30.7128L28.3292 17.4571Z" fill="white"></path>
<path d="M33.4599 1.38123L30.9955 4.49072H33.4397L37.0353 1.38123H33.4599Z" fill="white"></path>
<path d="M44.9134 6.645C43.964 6.07594 42.8126 5.77109 41.439 5.77109C40.0654 5.77109 39.1564 5.99464 38.1868 6.44176C37.197 6.88888 36.389 7.49858 35.7427 8.2912C35.0963 9.0635 34.6721 9.95773 34.4499 10.9536C34.1671 12.2949 34.2075 13.494 34.5913 14.5305C34.9751 15.567 35.5811 16.38 36.4496 16.9693C37.3182 17.5587 38.3484 17.8433 39.52 17.8433C40.6916 17.8433 41.2976 17.64 42.1258 17.2539C42.954 16.8677 43.6206 16.2987 44.1458 15.5467L43.7418 17.4368H46.1254L47.095 12.8437C47.398 11.3804 47.3576 10.1203 46.9536 9.08382C46.5496 8.027 45.8628 7.21406 44.9336 6.645H44.9134ZM44.5498 12.2746C44.3074 13.3111 43.8024 14.1444 42.9944 14.7744C42.2066 15.4044 41.2572 15.7093 40.1462 15.7093C39.0352 15.7093 38.6514 15.5264 38.106 15.1606C37.5606 14.7947 37.1768 14.2866 36.9546 13.6363C36.7526 12.9859 36.7324 12.234 36.9142 11.421C37.1566 10.3642 37.6818 9.53094 38.4696 8.90091C39.2776 8.27088 40.2068 7.96603 41.2976 7.96603C42.3884 7.96603 42.8126 8.14894 43.358 8.51476C43.9034 8.88059 44.2872 9.38867 44.5094 10.039C44.7316 10.6894 44.7316 11.421 44.5498 12.2746Z" fill="white"></path>
<path d="M62.366 5.954C61.962 5.8727 61.4974 5.83205 61.0126 5.83205C59.5784 5.83205 58.3664 6.19788 57.3564 6.92952C56.3464 7.66117 55.6798 8.88058 55.3364 10.5471L53.882 17.4571H56.4272L57.8008 10.9739C58.023 9.93741 58.4068 9.18544 58.9522 8.73832C59.4976 8.2912 60.2248 8.04732 61.1136 8.04732C62.0024 8.04732 62.2044 8.14894 62.669 8.33185L63.5577 6.34014C63.1941 6.17755 62.7901 6.05561 62.3861 5.954H62.366Z" fill="white"></path>
<path d="M75.1322 9.61223H75.1726C75.3342 8.86026 75.2534 8.18958 74.9302 7.62053C74.607 7.03114 74.0818 6.58403 73.3546 6.25885C72.6274 5.93367 71.7386 5.77109 70.6681 5.77109C69.5975 5.77109 68.2037 5.99464 67.1533 6.44176C66.0827 6.88888 65.2141 7.53923 64.5071 8.35217C63.8001 9.16511 63.3355 10.1406 63.1133 11.2584C62.8507 12.5388 62.9517 13.6769 63.3557 14.6728C63.7597 15.6686 64.4667 16.4409 65.4363 17.01C66.4059 17.5791 67.5977 17.8636 68.9915 17.8636C70.3853 17.8636 72.183 17.4978 73.5566 16.7864L72.8092 14.7947C71.5164 15.4044 70.2843 15.689 69.1127 15.689C67.9411 15.689 67.2341 15.4857 66.6281 15.0386C66.0221 14.6118 65.6383 13.9818 65.5373 13.1688C65.8807 13.1688 66.2847 13.1688 66.7493 13.1688C71.8396 13.1688 74.6272 11.9698 75.1322 9.59191V9.61223ZM67.3553 8.81961C68.2239 8.20991 69.2945 7.92538 70.5267 7.92538C71.7588 7.92538 71.9002 8.04732 72.3042 8.2912C72.688 8.53508 72.8294 8.90091 72.7284 9.36835C72.587 9.97805 72.0214 10.4658 71.0316 10.791C70.0419 11.1162 68.6683 11.2788 66.9109 11.2788H65.6787C65.9211 10.2423 66.4665 9.42932 67.3553 8.81961Z" fill="white"></path>
<path d="M87.2119 6.62467V6.66532C86.2625 6.07594 85.0909 5.77109 83.6971 5.77109C82.3033 5.77109 80.4045 6.23853 79.1723 7.17341C77.9401 8.10829 77.1524 9.409 76.809 11.0349L74.6072 21.3999H77.1523L78.4047 15.4044C78.7885 16.1767 79.3743 16.7661 80.1217 17.1929C80.8893 17.6197 81.7781 17.8433 82.8083 17.8433C83.8385 17.8433 84.9091 17.6197 85.8383 17.1726C86.7675 16.7255 87.5553 16.0954 88.2017 15.3028C88.8481 14.5102 89.2723 13.616 89.4743 12.5998C89.7369 11.2788 89.6763 10.1 89.2723 9.0635C88.8683 8.027 88.1815 7.21406 87.2119 6.62467ZM87.0099 12.2746C86.7675 13.3111 86.2625 14.1444 85.4545 14.7744C84.6667 15.4044 83.7173 15.7093 82.6063 15.7093C81.4953 15.7093 81.1115 15.5264 80.5661 15.1606C80.0207 14.7947 79.6369 14.2866 79.4147 13.6363C79.2127 12.9859 79.1925 12.234 79.3743 11.421C79.6167 10.3642 80.1419 9.53094 80.9297 8.90091C81.7377 8.27088 82.6669 7.96603 83.7577 7.96603C84.8485 7.96603 85.2727 8.14894 85.8181 8.51476C86.3635 8.88059 86.7473 9.38867 86.9695 10.039C87.1917 10.6894 87.1917 11.421 87.0099 12.2746Z" fill="white"></path>
<path d="M94.8474 8.20991H94.8878C95.2312 7.96602 95.716 7.84408 96.3826 7.84408C97.0492 7.84408 97.6754 7.9457 98.241 8.14894C98.8066 8.35217 99.3318 8.65702 99.7964 9.04317L101.109 7.55955C100.524 6.9905 99.857 6.54338 99.0692 6.25885C98.2814 5.954 97.4128 5.81173 96.4634 5.81173C95.514 5.81173 94.2414 6.05561 93.4132 6.5637C92.585 7.07179 92.1002 7.78311 91.9184 8.69767C91.7568 9.53094 91.9184 10.2829 92.4032 10.9333C92.888 11.5836 93.7566 12.0714 94.9888 12.3966L96.0594 12.6608C96.726 12.8233 97.231 13.0063 97.534 13.1892C97.8572 13.3721 98.039 13.5753 98.1198 13.7786C98.2006 13.9818 98.2006 14.2257 98.1602 14.4492C98.0996 14.8151 97.8774 15.1402 97.4936 15.4248C97.1098 15.689 96.5442 15.8312 95.7968 15.8312C95.0494 15.8312 94.1404 15.689 93.494 15.4248C92.8476 15.1402 92.2214 14.7541 91.5952 14.246L90.1812 15.8516C90.8882 16.4816 91.6962 16.9897 92.6456 17.3555C93.595 17.7213 94.605 17.9042 95.6756 17.9042C96.7462 17.9042 98.0996 17.6197 98.948 17.0303C99.7964 16.4613 100.322 15.7499 100.503 14.8963C100.645 14.2866 100.625 13.7379 100.463 13.2298C100.301 12.7217 99.958 12.2543 99.4126 11.8478C98.8672 11.4413 98.0794 11.0958 97.029 10.8113L96.0392 10.5471C95.2312 10.3236 94.7262 10.0797 94.4838 9.83579C94.2616 9.59191 94.1808 9.30738 94.2414 8.9822C94.302 8.69767 94.504 8.43347 94.8474 8.20991Z" fill="white"></path>
<path d="M114.502 7.84408C113.997 7.19373 113.35 6.70597 112.522 6.34014C111.714 5.97432 110.765 5.79141 109.694 5.79141C108.624 5.79141 107.371 6.01497 106.361 6.48241C105.351 6.94985 104.523 7.57988 103.856 8.39282C103.19 9.20576 102.745 10.1406 102.523 11.2178C102.341 12.0917 102.341 12.925 102.523 13.7176C102.705 14.5102 103.048 15.2215 103.553 15.8516C104.058 16.4816 104.725 16.9693 105.533 17.3352C106.341 17.701 107.29 17.8839 108.361 17.8839C109.432 17.8839 110.704 17.6603 111.694 17.1929C112.704 16.7458 113.532 16.0954 114.199 15.2825C114.865 14.4696 115.31 13.5347 115.512 12.4778C115.694 11.6039 115.694 10.7707 115.512 9.97805C115.33 9.18544 114.987 8.47411 114.482 7.84408H114.502ZM113.027 12.112C112.805 13.1892 112.28 14.0631 111.452 14.6931C110.623 15.3435 109.634 15.6483 108.482 15.6483C107.331 15.6483 106.907 15.4654 106.321 15.0996C105.755 14.7338 105.351 14.246 105.129 13.616C104.907 12.9859 104.866 12.2949 105.048 11.5023C105.291 10.4252 105.816 9.55126 106.644 8.92123C107.472 8.2912 108.442 7.96603 109.573 7.96603C110.704 7.96603 111.149 8.14894 111.734 8.51476C112.3 8.88058 112.704 9.36835 112.926 9.99838C113.148 10.6284 113.169 11.3194 113.007 12.112H113.027Z" fill="white"></path>
<path d="M119.855 2.21446L116.623 17.4571H119.168L122.4 2.21446H119.855Z" fill="white"></path>
</g>
<line x1="133.381" y1="1.91156e-08" x2="133.381" y2="23.6149" stroke="white" stroke-opacity="0.2" stroke-width="0.874627"></line>
<path d="M154.32 17.8074V12.3673H146.816V17.8074H145.136V5.73758H146.816V10.9329H154.32V5.73758H155.982V17.8074H154.32ZM161.447 18.0348C160.538 18.0348 159.815 17.8191 159.278 17.3876C158.742 16.9445 158.473 16.3614 158.473 15.6384C158.473 14.6704 158.952 13.9124 159.908 13.3643C160.876 12.8162 162.339 12.4664 164.298 12.3148L165.453 12.2273C165.395 11.3993 165.15 10.8104 164.718 10.4606C164.287 10.0991 163.605 9.9183 162.672 9.9183C161.471 9.9183 160.229 10.2332 158.946 10.8629C158.946 10.3381 159.016 9.81334 159.156 9.28857C160.368 8.77545 161.581 8.5189 162.794 8.5189C164.182 8.5189 165.231 8.85125 165.943 9.51597C166.654 10.1807 167.01 11.1544 167.01 12.4372V16.4955H168.532C168.532 16.9503 168.473 17.3876 168.357 17.8074H165.488V16.1107C165.243 16.4838 164.911 16.8162 164.491 17.1077C164.083 17.3993 163.616 17.6267 163.092 17.7899C162.567 17.9532 162.019 18.0348 161.447 18.0348ZM165.47 13.3818L164.316 13.4868C162.905 13.6151 161.844 13.8425 161.132 14.169C160.421 14.4839 160.065 14.927 160.065 15.4984C160.065 16.3031 160.678 16.7054 161.902 16.7054C162.532 16.7054 163.115 16.5771 163.651 16.3206C164.199 16.0523 164.637 15.7025 164.963 15.271C165.301 14.8279 165.47 14.3556 165.47 13.8541V13.3818ZM174.651 18.0523C173.637 18.0523 172.745 17.8541 171.975 17.4576C171.217 17.0494 170.622 16.4838 170.191 15.7608C169.759 15.0378 169.543 14.2098 169.543 13.2769C169.543 12.3323 169.759 11.5043 170.191 10.7929C170.622 10.0816 171.217 9.52763 171.975 9.13113C172.745 8.72298 173.637 8.5189 174.651 8.5189C175.234 8.5189 175.817 8.58887 176.4 8.72881C176.984 8.86875 177.526 9.07283 178.027 9.34104C178.027 9.81917 177.963 10.3031 177.835 10.7929C177.38 10.513 176.884 10.2973 176.348 10.1457C175.823 9.98244 175.304 9.90081 174.791 9.90081C174.08 9.90081 173.45 10.0466 172.902 10.3381C172.354 10.618 171.922 11.0145 171.607 11.5276C171.304 12.0291 171.153 12.6121 171.153 13.2769C171.153 13.9416 171.304 14.5305 171.607 15.0436C171.922 15.5451 172.354 15.9416 172.902 16.2331C173.45 16.513 174.08 16.6529 174.791 16.6529C175.934 16.6529 177.001 16.3381 177.992 15.7083C178.004 15.9765 177.992 16.2448 177.957 16.513C177.922 16.7695 177.87 17.0319 177.8 17.3002C177.368 17.5334 176.879 17.7141 176.33 17.8424C175.782 17.9824 175.223 18.0523 174.651 18.0523ZM184.73 18.0523C183.681 18.0523 182.771 17.8541 182.001 17.4576C181.243 17.0611 180.655 16.5072 180.235 15.7958C179.815 15.0728 179.605 14.2273 179.605 13.2594C179.605 12.3264 179.815 11.5043 180.235 10.7929C180.655 10.0816 181.232 9.52763 181.966 9.13113C182.713 8.72298 183.576 8.5189 184.555 8.5189C185.943 8.5189 187.028 8.93872 187.809 9.77836C188.59 10.6063 188.981 11.7667 188.981 13.2594V13.8891H181.197C181.313 14.7521 181.692 15.4284 182.334 15.9182C182.987 16.408 183.832 16.6529 184.87 16.6529C186.165 16.6529 187.366 16.3322 188.474 15.6908C188.474 15.9474 188.456 16.2098 188.421 16.478C188.386 16.7346 188.34 17.0028 188.281 17.2827C187.15 17.7958 185.966 18.0523 184.73 18.0523ZM181.179 12.5947H187.459C187.413 11.6967 187.133 11.0087 186.62 10.5305C186.118 10.0524 185.418 9.81334 184.52 9.81334C183.576 9.81334 182.812 10.0582 182.229 10.548C181.657 11.0378 181.308 11.72 181.179 12.5947ZM197.9 17.8074V12.7521C197.9 11.7842 197.731 11.0728 197.392 10.618C197.066 10.1632 196.547 9.93579 195.836 9.93579C194.938 9.93579 194.215 10.2623 193.667 10.9154C193.13 11.5684 192.862 12.4372 192.862 13.5218V17.8074H191.288V8.76379H192.862V10.688C193.188 9.99993 193.649 9.46932 194.244 9.09615C194.85 8.71131 195.532 8.5189 196.29 8.5189C197.06 8.5189 197.696 8.71714 198.197 9.11364C198.71 9.49848 199.06 10.0582 199.247 10.7929C199.573 10.0932 200.051 9.53929 200.681 9.13113C201.322 8.72298 202.034 8.5189 202.815 8.5189C203.853 8.5189 204.652 8.86292 205.212 9.55096C205.783 10.239 206.069 11.2244 206.069 12.5072V17.8074H204.494V12.7521C204.494 11.7725 204.331 11.0611 204.005 10.618C203.678 10.1632 203.159 9.93579 202.448 9.93579C201.538 9.93579 200.815 10.2623 200.279 10.9154C199.742 11.5684 199.474 12.4372 199.474 13.5218V17.8074H197.9ZM213.206 18.0523C212.214 18.0523 211.334 17.8541 210.564 17.4576C209.806 17.0494 209.212 16.4838 208.78 15.7608C208.349 15.0378 208.133 14.2098 208.133 13.2769C208.133 12.3323 208.349 11.5043 208.78 10.7929C209.212 10.0816 209.806 9.52763 210.564 9.13113C211.334 8.72298 212.214 8.5189 213.206 8.5189C214.197 8.5189 215.072 8.72298 215.83 9.13113C216.599 9.52763 217.2 10.0816 217.631 10.7929C218.063 11.5043 218.279 12.3323 218.279 13.2769C218.279 14.2098 218.057 15.0378 217.614 15.7608C217.182 16.4838 216.588 17.0494 215.83 17.4576C215.072 17.8541 214.197 18.0523 213.206 18.0523ZM213.206 16.6704C213.882 16.6704 214.477 16.5246 214.99 16.2331C215.515 15.9416 215.923 15.5392 216.214 15.0261C216.518 14.513 216.669 13.9299 216.669 13.2769C216.669 12.6121 216.518 12.0291 216.214 11.5276C215.923 11.0145 215.515 10.618 214.99 10.3381C214.477 10.0466 213.882 9.90081 213.206 9.90081C212.529 9.90081 211.929 10.0466 211.404 10.3381C210.891 10.618 210.483 11.0145 210.18 11.5276C209.888 12.0291 209.742 12.6121 209.742 13.2769C209.742 13.9299 209.888 14.513 210.18 15.0261C210.483 15.5392 210.891 15.9416 211.404 16.2331C211.929 16.5246 212.529 16.6704 213.206 16.6704ZM223.804 18.0523C223.116 18.0523 222.434 17.9824 221.757 17.8424C221.093 17.7141 220.486 17.5217 219.938 17.2652C219.915 16.7637 219.973 16.2856 220.113 15.8308C220.766 16.134 221.39 16.3614 221.985 16.513C222.58 16.6529 223.221 16.7229 223.909 16.7229C225.623 16.7229 226.48 16.2448 226.48 15.2885C226.48 14.892 226.323 14.5946 226.008 14.3964C225.705 14.1981 225.192 14.0407 224.469 13.9241L222.58 13.5917C221.728 13.4401 221.087 13.1544 220.655 12.7346C220.224 12.3148 220.008 11.8017 220.008 11.1953C220.008 10.344 220.37 9.68506 221.093 9.2186C221.827 8.75213 222.83 8.5189 224.101 8.5189C224.696 8.5189 225.308 8.5772 225.938 8.69382C226.579 8.81044 227.203 9.00286 227.81 9.27107C227.81 9.51597 227.792 9.75504 227.757 9.98827C227.734 10.2215 227.693 10.4489 227.635 10.6705C227.063 10.4023 226.463 10.1982 225.833 10.0582C225.203 9.90664 224.585 9.83084 223.979 9.83084C223.606 9.83084 223.238 9.87165 222.877 9.95328C222.515 10.0233 222.212 10.1457 221.967 10.3206C221.734 10.4956 221.617 10.7463 221.617 11.0728C221.617 11.3993 221.74 11.6501 221.985 11.825C222.241 11.9999 222.69 12.1457 223.332 12.2623L225.168 12.5947C226.171 12.7696 226.9 13.0786 227.355 13.5218C227.81 13.9649 228.037 14.5188 228.037 15.1836C228.037 16.1048 227.67 16.8162 226.935 17.3176C226.2 17.8074 225.157 18.0523 223.804 18.0523ZM239.001 18.0523C237.987 18.0523 237.095 17.8541 236.325 17.4576C235.567 17.0494 234.972 16.4838 234.541 15.7608C234.109 15.0378 233.893 14.2098 233.893 13.2769C233.893 12.3323 234.109 11.5043 234.541 10.7929C234.972 10.0816 235.567 9.52763 236.325 9.13113C237.095 8.72298 237.987 8.5189 239.001 8.5189C239.584 8.5189 240.167 8.58887 240.75 8.72881C241.334 8.86875 241.876 9.07283 242.377 9.34104C242.377 9.81917 242.313 10.3031 242.185 10.7929C241.73 10.513 241.234 10.2973 240.698 10.1457C240.173 9.98244 239.654 9.90081 239.141 9.90081C238.43 9.90081 237.8 10.0466 237.252 10.3381C236.704 10.618 236.272 11.0145 235.957 11.5276C235.654 12.0291 235.503 12.6121 235.503 13.2769C235.503 13.9416 235.654 14.5305 235.957 15.0436C236.272 15.5451 236.704 15.9416 237.252 16.2331C237.8 16.513 238.43 16.6529 239.141 16.6529C240.284 16.6529 241.351 16.3381 242.342 15.7083C242.354 15.9765 242.342 16.2448 242.307 16.513C242.272 16.7695 242.22 17.0319 242.15 17.3002C241.718 17.5334 241.229 17.7141 240.68 17.8424C240.132 17.9824 239.573 18.0523 239.001 18.0523ZM249.028 18.0523C248.037 18.0523 247.156 17.8541 246.386 17.4576C245.628 17.0494 245.034 16.4838 244.602 15.7608C244.171 15.0378 243.955 14.2098 243.955 13.2769C243.955 12.3323 244.171 11.5043 244.602 10.7929C245.034 10.0816 245.628 9.52763 246.386 9.13113C247.156 8.72298 248.037 8.5189 249.028 8.5189C250.019 8.5189 250.894 8.72298 251.652 9.13113C252.421 9.52763 253.022 10.0816 253.453 10.7929C253.885 11.5043 254.101 12.3323 254.101 13.2769C254.101 14.2098 253.879 15.0378 253.436 15.7608C253.004 16.4838 252.41 17.0494 251.652 17.4576C250.894 17.8541 250.019 18.0523 249.028 18.0523ZM249.028 16.6704C249.704 16.6704 250.299 16.5246 250.812 16.2331C251.337 15.9416 251.745 15.5392 252.037 15.0261C252.34 14.513 252.491 13.9299 252.491 13.2769C252.491 12.6121 252.34 12.0291 252.037 11.5276C251.745 11.0145 251.337 10.618 250.812 10.3381C250.299 10.0466 249.704 9.90081 249.028 9.90081C248.351 9.90081 247.751 10.0466 247.226 10.3381C246.713 10.618 246.305 11.0145 246.002 11.5276C245.71 12.0291 245.564 12.6121 245.564 13.2769C245.564 13.9299 245.71 14.513 246.002 15.0261C246.305 15.5392 246.713 15.9416 247.226 16.2331C247.751 16.5246 248.351 16.6704 249.028 16.6704ZM260.816 18.0523C259.801 18.0523 258.909 17.8541 258.139 17.4576C257.381 17.0494 256.787 16.4838 256.355 15.7608C255.924 15.0378 255.708 14.2098 255.708 13.2769C255.708 12.3323 255.924 11.5043 256.355 10.7929C256.787 10.0816 257.381 9.52763 258.139 9.13113C258.909 8.72298 259.801 8.5189 260.816 8.5189C261.399 8.5189 261.982 8.58887 262.565 8.72881C263.148 8.86875 263.69 9.07283 264.192 9.34104C264.192 9.81917 264.128 10.3031 263.999 10.7929C263.544 10.513 263.049 10.2973 262.512 10.1457C261.988 9.98244 261.469 9.90081 260.956 9.90081C260.244 9.90081 259.614 10.0466 259.066 10.3381C258.518 10.618 258.087 11.0145 257.772 11.5276C257.469 12.0291 257.317 12.6121 257.317 13.2769C257.317 13.9416 257.469 14.5305 257.772 15.0436C258.087 15.5451 258.518 15.9416 259.066 16.2331C259.614 16.513 260.244 16.6529 260.956 16.6529C262.098 16.6529 263.165 16.3381 264.157 15.7083C264.168 15.9765 264.157 16.2448 264.122 16.513C264.087 16.7695 264.034 17.0319 263.964 17.3002C263.533 17.5334 263.043 17.7141 262.495 17.8424C261.947 17.9824 261.387 18.0523 260.816 18.0523ZM266.801 17.8074V10.0582H265.297C265.274 9.61509 265.326 9.18361 265.455 8.76379H268.376V17.8074H266.801ZM267.396 7.102C267.081 7.102 266.825 7.00871 266.627 6.82212C266.428 6.62387 266.329 6.37898 266.329 6.08743C266.329 5.79589 266.428 5.55683 266.627 5.37024C266.825 5.17199 267.081 5.07287 267.396 5.07287C267.711 5.07287 267.968 5.17199 268.166 5.37024C268.364 5.55683 268.463 5.79589 268.463 6.08743C268.463 6.37898 268.364 6.62387 268.166 6.82212C267.968 7.00871 267.711 7.102 267.396 7.102ZM271.285 17.8074V8.76379H272.825V10.7754C273.174 10.0641 273.676 9.51014 274.329 9.11364C274.982 8.71714 275.74 8.5189 276.603 8.5189C277.722 8.5189 278.591 8.86292 279.209 9.55096C279.827 10.239 280.136 11.2186 280.136 12.4897V17.8074H278.562V12.7871C278.562 11.8192 278.364 11.102 277.967 10.6355C277.582 10.169 276.982 9.93579 276.166 9.93579C275.163 9.93579 274.358 10.2623 273.752 10.9154C273.157 11.5568 272.86 12.4139 272.86 13.4868V17.8074H271.285ZM285.159 18.0348C284.249 18.0348 283.526 17.8191 282.99 17.3876C282.454 16.9445 282.185 16.3614 282.185 15.6384C282.185 14.6704 282.663 13.9124 283.62 13.3643C284.588 12.8162 286.051 12.4664 288.01 12.3148L289.165 12.2273C289.107 11.3993 288.862 10.8104 288.43 10.4606C287.999 10.0991 287.316 9.9183 286.384 9.9183C285.182 9.9183 283.94 10.2332 282.658 10.8629C282.658 10.3381 282.728 9.81334 282.868 9.28857C284.08 8.77545 285.293 8.5189 286.506 8.5189C287.894 8.5189 288.943 8.85125 289.655 9.51597C290.366 10.1807 290.722 11.1544 290.722 12.4372V16.4955H292.244C292.244 16.9503 292.185 17.3876 292.069 17.8074H289.2V16.1107C288.955 16.4838 288.623 16.8162 288.203 17.1077C287.795 17.3993 287.328 17.6267 286.803 17.7899C286.279 17.9532 285.73 18.0348 285.159 18.0348ZM289.182 13.3818L288.028 13.4868C286.617 13.6151 285.556 13.8425 284.844 14.169C284.133 14.4839 283.777 14.927 283.777 15.4984C283.777 16.3031 284.389 16.7054 285.614 16.7054C286.244 16.7054 286.827 16.5771 287.363 16.3206C287.911 16.0523 288.349 15.7025 288.675 15.271C289.013 14.8279 289.182 14.3556 289.182 13.8541V13.3818Z" fill="white"></path>
<defs>
<clipPath id="clip0_150_19711">
<rect width="122.448" height="20.991" fill="white" transform="translate(0 1.31195)"></rect>
</clipPath>
</defs>
</svg>