<svg width="24" height="24" viewBox="0 0 24 24" fill="none" xmlns="http://www.w3.org/2000/svg">
<path d="M21.7995 11.4445L21.5361 11.2474C15.7729 7.37741 9.76187 4.56445 3.47193 3.02362C3.41434 3.0076 3.35648 3 3.29917 3C2.97104 3 2.66333 3.2514 2.55795 3.63272C1.81418 6.58905 1.81418 17.4108 2.55795 20.3671C2.66342 20.7485 2.97104 21 3.29917 21C3.35648 21 3.41443 20.9923 3.47193 20.9764C9.76187 19.4354 15.7729 16.6224 21.5361 12.7525L21.7995 12.5554C21.945 12.4423 22.0009 12.215 22.0009 12C22.0009 11.7849 21.9356 11.5538 21.7995 11.4445ZM3.88034 19.3249C3.37799 16.1127 3.37891 7.83087 3.8775 4.67422C9.27545 6.09457 14.6768 8.5556 19.9555 11.9999C14.6902 15.4354 9.30145 17.8932 3.88034 19.3249Z" fill="#001E37"></path>
</svg>