<svg width="119" height="119" viewBox="0 0 119 119" fill="none" xmlns="http://www.w3.org/2000/svg">
<g clip-path="url(#clip0_150_19716)">
<g filter="url(#filter0_f_150_19716)">
<circle cx="59.5" cy="59.5" r="43.5" fill="url(#paint0_radial_150_19716)"></circle>
</g>
<path d="M26.8297 64.3436C26.7445 64.6139 26.2203 64.522 25.9707 64.6515C25.6632 64.6306 25.3556 64.6043 25.0486 64.572C24.8815 64.5816 24.9114 64.473 24.9141 64.3806C24.8306 64.4705 24.6543 64.5248 24.5261 64.3938C24.3242 64.3683 24.0881 64.3571 24.002 64.2627C23.7773 64.3677 23.2674 64.1682 22.9331 64.1416C22.6063 64.143 22.2409 64.1048 21.8607 64.0409C21.4785 63.9868 21.0787 63.8521 20.7293 63.6371C20.5552 63.5272 20.3918 63.3967 20.2603 63.237C20.129 63.0782 20.0315 62.8809 20.0196 62.6723C20.0101 62.4654 20.0697 62.2683 20.173 62.1117C20.2759 61.9546 20.4102 61.843 20.533 61.7524C20.7838 61.6877 20.884 61.5556 21.1598 61.6C21.3779 61.5393 21.3367 61.3968 21.5545 61.3351C21.7638 61.2994 22.1053 61.0606 22.2283 61.1578C22.5152 60.9393 23.1591 60.5752 23.5676 60.5574C23.6007 60.3275 23.8387 60.467 23.9646 60.2916L24.6182 60.0587C24.989 59.8981 25.3716 59.4822 25.8157 59.5084C25.9634 59.5709 25.8725 59.8553 25.5479 59.9151C25.4263 60.0565 25.0788 60.125 24.9327 60.258C24.5074 60.5694 24.0568 60.6235 23.6861 60.8887C23.2531 61.0318 22.8091 61.2804 22.3487 61.4886C22.1378 61.5839 21.9244 61.6792 21.7004 61.7716C21.4803 61.8641 21.2315 61.9498 21.0115 62.0361C20.9057 62.045 20.7841 62.1006 20.6847 62.1598C20.5832 62.2191 20.5096 62.2794 20.4302 62.3009C20.469 62.381 20.4571 62.42 20.4357 62.4671C20.4261 62.4915 20.4088 62.5147 20.3942 62.5405C20.3863 62.566 20.3784 62.5938 20.377 62.6217C20.3872 62.688 20.4207 62.7483 20.4716 62.8212C20.5177 62.8963 20.5735 62.9906 20.6615 63.1539C20.896 63.3262 21.1811 63.4306 21.4458 63.5089C21.5806 63.5508 21.7023 63.5805 21.8353 63.6173C21.9743 63.6542 22.1065 63.701 22.2308 63.7567C22.703 63.6186 23.0733 63.8009 23.7532 63.8687C24.2405 63.9999 24.7833 64.0627 25.4623 64.2587C25.9128 64.242 26.5429 63.9966 26.8297 64.3436Z" fill="#0C1D3C"></path>
<path d="M60.2897 61.8511C60.3312 62.0163 60.1104 62.3666 59.8413 62.7522C59.7117 62.9498 59.5456 63.1343 59.4053 63.3187C59.2627 63.5014 59.136 63.6747 59.0505 63.8222C58.7552 64.1219 58.4485 64.4108 58.1474 64.7056C57.8296 64.9813 57.5139 65.2605 57.1919 65.5319C56.8536 65.8294 56.8236 65.712 56.7516 65.6508C56.651 65.8474 56.3424 66.2053 55.95 66.3259C55.7216 66.4847 55.4798 66.66 55.2613 66.8064C55.0364 66.9433 54.835 67.0497 54.6992 67.0866C54.3052 67.5258 52.9613 68.1102 52.1563 68.5328C50.6246 69.3873 48.5071 70.1484 46.3744 70.584C44.2363 71.0108 42.1125 71.1337 40.5717 71.2235C40.2477 71.1941 39.9901 71.1965 39.7311 71.1946C39.4728 71.1928 39.2118 71.1809 38.8855 71.0983C38.2709 71.0606 38.2348 71.2201 37.618 71.1631C37.0484 71.1037 35.9403 71.1015 35.7297 70.9479C35.2561 70.9417 34.516 70.9196 33.7686 70.8174C33.5818 70.7929 33.3938 70.7709 33.2093 70.7398C33.0256 70.7066 32.8452 70.6717 32.6722 70.6349C32.325 70.5626 32.0076 70.4845 31.7535 70.3881C31.4201 70.5156 30.989 70.2098 30.4899 70.1902C30.1838 70.1016 29.8736 70.0251 29.5694 69.9267L28.6569 69.6341C27.6005 69.3008 26.2118 69.0307 25.251 68.3741C24.9958 68.1377 25.5444 68.1288 26.3395 68.5509C26.7828 68.6364 27.653 69.0552 28.1517 69.1419C29.4977 69.4645 30.6336 69.904 31.8295 70.0441C33.0396 70.3334 34.4022 70.4862 35.7656 70.5968C37.0151 70.6932 38.3006 70.7355 39.7256 70.7569C40.3266 70.8316 41.3515 70.7429 41.8171 70.8263C42.1141 70.6478 42.5911 70.7366 43.0635 70.6826C43.3375 70.6503 43.629 70.5922 43.9917 70.5449C44.3518 70.4857 44.7816 70.4379 45.3386 70.4172C47.1335 70.0696 48.7382 69.4993 50.1405 69.1067C50.3958 68.9465 50.6537 68.8114 50.9207 68.68C51.1843 68.5397 51.4591 68.4092 51.7563 68.2753C52.3442 67.9953 53.0149 67.6875 53.8096 67.2098C55.015 66.5718 56.2542 65.736 57.7541 64.5802C57.976 64.3753 58.1843 64.1107 58.4123 63.8552C58.6428 63.6027 58.8543 63.3206 59.0694 63.0602C59.1772 62.9297 59.2847 62.8043 59.3928 62.6862C59.4966 62.5647 59.5944 62.4457 59.6948 62.3404C59.8951 62.1275 60.0937 61.9571 60.2897 61.8511Z" fill="#0C1D3C"></path>
<path d="M30.1691 57.106C30.2542 56.9974 30.3441 56.9358 30.461 56.8871C30.7201 56.7799 31.0091 56.7028 31.2808 56.7726C31.5114 56.8325 31.7108 56.9993 31.8096 57.2151C31.9298 57.4782 31.8989 57.7841 31.8379 58.0667C31.7908 58.284 31.7257 58.5011 31.6028 58.6866C31.4803 58.8721 31.2929 59.0232 31.0739 59.0618C30.7099 59.1261 30.3724 58.879 30.0859 58.6462C30.0116 58.5857 29.935 58.5226 29.8914 58.4376C29.8542 58.3654 29.8427 58.2828 29.838 58.2022C29.8162 57.8133 29.9357 57.4179 30.1691 57.106Z" fill="#0C1D3C"></path>
<path d="M23.878 55.6024C24.077 55.6653 24.2797 55.6835 24.4049 55.8497C24.4438 55.901 24.4612 55.9647 24.4749 56.0274C24.5714 56.4641 24.5457 56.9272 24.402 57.3516C24.3113 57.6198 24.1544 57.8907 23.8933 58.0028C23.5807 58.1365 23.1932 57.9888 22.9968 57.7127C22.8 57.4366 22.7743 57.0658 22.8618 56.7388C22.9498 56.4109 23.1398 56.1202 23.347 55.851C23.422 55.7544 23.5797 55.5542 23.7775 55.5866" fill="#0C1D3C"></path>
</g>
<defs>
<filter id="filter0_f_150_19716" x="-1.4" y="-1.4" width="121.8" height="121.8" filterUnits="userSpaceOnUse" color-interpolation-filters="sRGB">
<feFlood flood-opacity="0" result="BackgroundImageFix"></feFlood>
<feBlend mode="normal" in="SourceGraphic" in2="BackgroundImageFix" result="shape"></feBlend>
<feGaussianBlur stdDeviation="8.7" result="effect1_foregroundBlur_150_19716"></feGaussianBlur>
</filter>
<radialGradient id="paint0_radial_150_19716" cx="0" cy="0" r="1" gradientUnits="userSpaceOnUse" gradientTransform="translate(59.5 59.5) rotate(89.3772) scale(46.0027)">
<stop stop-color="#FCB300"></stop>
<stop offset="0.827831" stop-color="#FCB70D" stop-opacity="0.879992"></stop>
<stop offset="0.931911" stop-color="#FCB70D" stop-opacity="0"></stop>
</radialGradient>
<clipPath id="clip0_150_19716">
<rect width="119" height="119" fill="white"></rect>
</clipPath>
</defs>
</svg>