<svg width="213" height="98" viewBox="0 0 213 98" fill="none" xmlns="http://www.w3.org/2000/svg" xmlns:xlink="http://www.w3.org/1999/xlink">
<g opacity="0.24" filter="url(#filter0_d_2158_891)">
<rect x="16" y="12" width="181" height="66" rx="8" fill="white"></rect>
</g>
<g clip-path="url(#clip0_2158_891)">
<rect width="39" height="39" transform="translate(29 27)" fill="white"></rect>
<mask id="mask0_2158_891" style="mask-type:luminance" maskUnits="userSpaceOnUse" x="13" y="11" width="70" height="70">
<rect width="60.2691" height="47.9753" transform="matrix(-0.804867 0.461603 -0.441876 -0.864471 82.9717 52.9255)" fill="url(#pattern0_2158_891)"></rect>
</mask>
<g mask="url(#mask0_2158_891)">
<rect width="59.1172" height="48.3836" transform="matrix(-0.812884 0.466377 0.448119 0.863424 61.308 11.4261)" fill="url(#pattern1_2158_891)"></rect>
</g>
<path d="M39.8176 46.2509C39.8016 46.3237 39.6348 46.2728 39.5622 46.2977C39.4656 46.2772 39.3689 46.2552 39.2721 46.2315C39.2204 46.2263 39.2255 46.1969 39.2228 46.1708C39.2003 46.1923 39.1475 46.1994 39.1026 46.1561C39.0387 46.1393 38.9648 46.125 38.9344 46.0941C38.8685 46.1133 38.7021 46.0324 38.597 46.0091C38.4953 45.994 38.3801 45.9658 38.2593 45.9297C38.1383 45.8962 38.0086 45.839 37.8916 45.7614C37.8331 45.7219 37.7773 45.6771 37.7301 45.6255C37.6832 45.5742 37.6452 45.5135 37.6334 45.4537C37.6225 45.3944 37.6334 45.3412 37.6595 45.3016C37.6855 45.2619 37.723 45.2365 37.7577 45.2166C37.8333 45.2101 37.8594 45.1773 37.9469 45.203C38.0125 45.196 37.9942 45.1536 38.0596 45.1464C38.1234 45.1461 38.2204 45.0945 38.2625 45.1279C38.3433 45.0794 38.5297 45.0064 38.6561 45.0207C38.6576 44.9569 38.737 45.0078 38.7695 44.964L38.9639 44.9287C39.0731 44.9007 39.1762 44.8006 39.3154 44.8291C39.3638 44.8538 39.3465 44.9303 39.2477 44.932C39.2154 44.9664 39.1099 44.9694 39.0695 45.0003C38.9491 45.0686 38.811 45.0626 38.7058 45.1205C38.5766 45.1406 38.448 45.1902 38.3127 45.2276C38.2507 45.2447 38.188 45.2617 38.1218 45.2773C38.0569 45.2932 37.9828 45.3057 37.9176 45.3199C37.885 45.3174 37.8493 45.3274 37.8207 45.3395C37.7914 45.3516 37.7708 45.3652 37.7469 45.3676C37.7621 45.3922 37.7599 45.4027 37.755 45.4151C37.753 45.4215 37.7485 45.4273 37.745 45.4339C37.7435 45.4408 37.7421 45.4483 37.7427 45.4562C37.7485 45.4755 37.7612 45.4943 37.7799 45.5174C37.7971 45.5409 37.8181 45.5703 37.8518 45.6209C37.9315 45.6809 38.0242 45.7241 38.1096 45.7589C38.1532 45.7772 38.1922 45.7914 38.235 45.8081C38.2798 45.8252 38.3227 45.8448 38.3635 45.8664C38.5052 45.8496 38.6275 45.9189 38.8417 45.9703C38.9985 46.0307 39.1699 46.0742 39.3888 46.1621C39.5283 46.1786 39.715 46.1387 39.8176 46.2509Z" fill="#0C1D3C"></path>
<path d="M49.713 46.5749C49.7318 46.6209 49.6776 46.7054 49.6099 46.7973C49.5778 46.8448 49.534 46.8872 49.4981 46.9306C49.4615 46.9735 49.4293 47.0146 49.4087 47.0505C49.3299 47.1183 49.2472 47.1827 49.1664 47.2489C49.0798 47.3094 48.994 47.3708 48.906 47.4299C48.8139 47.4952 48.8004 47.4625 48.7762 47.443C48.7529 47.4915 48.6721 47.5743 48.557 47.59C48.4933 47.6229 48.4262 47.6596 48.365 47.6895C48.3016 47.7167 48.2442 47.7367 48.2041 47.7408C48.1004 47.8418 47.7126 47.9414 47.4829 48.0206C47.0479 48.1846 46.4309 48.2988 45.797 48.3252C45.1613 48.349 44.5185 48.292 44.0522 48.2508C43.9524 48.2292 43.8739 48.2189 43.7949 48.2074C43.7161 48.196 43.6361 48.1818 43.5336 48.1458C43.3448 48.1097 43.3398 48.1509 43.1497 48.1095C42.9738 48.0695 42.636 48.022 42.5661 47.9719C42.4215 47.9502 42.1951 47.9129 41.9635 47.8539C41.9056 47.8394 41.8475 47.8255 41.7901 47.8094C41.7329 47.7927 41.6766 47.7757 41.6225 47.7585C41.5139 47.7244 41.4143 47.6901 41.3333 47.6535C41.2364 47.6736 41.0936 47.5734 40.9407 47.547C40.8441 47.5103 40.7467 47.4766 40.6503 47.4374L40.3613 47.3204C40.0269 47.1863 39.5935 47.0551 39.2762 46.8385C39.1896 46.7644 39.3565 46.7852 39.6146 46.932C39.7529 46.9737 40.0337 47.1227 40.189 47.1671C40.6112 47.3105 40.9739 47.4764 41.3436 47.5646C41.7232 47.6933 42.1442 47.792 42.5639 47.8794C42.9484 47.9581 43.3418 48.0239 43.7769 48.09C43.9629 48.1354 44.272 48.1551 44.417 48.1971C44.5009 48.1619 44.6496 48.2059 44.7915 48.2114C44.8739 48.2144 44.9606 48.2112 45.0693 48.2138C45.1769 48.2132 45.3061 48.2186 45.4751 48.2367C46.0093 48.2196 46.4771 48.1347 46.8899 48.0889C46.9618 48.0568 47.0353 48.0316 47.1118 48.0077C47.1869 47.9813 47.2658 47.9579 47.3514 47.9346C47.5202 47.8845 47.7131 47.8305 47.9376 47.7361C48.2812 47.6163 48.6278 47.4448 49.0419 47.1987C49.1019 47.1532 49.1555 47.0911 49.2154 47.0323C49.2763 46.9744 49.3303 46.9078 49.3861 46.8472C49.4141 46.8168 49.4422 46.7877 49.4708 46.7607C49.4979 46.7325 49.5232 46.7048 49.5499 46.6808C49.603 46.6322 49.6572 46.595 49.713 46.5749Z" fill="#0C1D3C"></path>
<path d="M40.5453 43.9585C40.5681 43.9306 40.5943 43.9168 40.6296 43.9082C40.7079 43.8894 40.797 43.8809 40.8863 43.9151C40.9622 43.9443 41.0324 44.0036 41.0725 44.0724C41.1213 44.1562 41.1236 44.2452 41.1154 44.3259C41.1091 44.3878 41.097 44.4489 41.0653 44.4976C41.0336 44.5465 40.9799 44.5819 40.9116 44.5824C40.7982 44.5833 40.6808 44.4934 40.5802 44.4102C40.5541 44.3886 40.5272 44.3661 40.5099 44.3388C40.4952 44.3156 40.4883 44.2906 40.4835 44.2665C40.4611 44.1503 40.4834 44.0392 40.5453 43.9585Z" fill="#0C1D3C"></path>
<path d="M38.6464 43.44C38.7134 43.469 38.7797 43.4847 38.827 43.5411C38.8417 43.5585 38.8499 43.5786 38.8569 43.5981C38.9058 43.7346 38.9163 43.8728 38.887 43.9935C38.8686 44.0697 38.8288 44.1435 38.7488 44.1641C38.6531 44.1886 38.5217 44.1246 38.4469 44.0315C38.372 43.9384 38.3486 43.8254 38.3637 43.7312C38.3789 43.6369 38.4285 43.5588 38.4847 43.4881C38.505 43.4628 38.5479 43.4104 38.6133 43.4302" fill="#0C1D3C"></path>
</g>
<path d="M91.008 55.36C89.984 55.36 88.952 55.248 87.912 55.024C86.888 54.8 85.952 54.512 85.104 54.16L85.392 51.568C87.328 52.48 89.24 52.936 91.128 52.936C92.232 52.936 93.088 52.728 93.696 52.312C94.304 51.88 94.608 51.264 94.608 50.464C94.608 50 94.496 49.608 94.272 49.288C94.064 48.968 93.68 48.688 93.12 48.448C92.576 48.192 91.808 47.96 90.816 47.752C88.864 47.336 87.456 46.744 86.592 45.976C85.728 45.192 85.296 44.168 85.296 42.904C85.296 41.912 85.56 41.056 86.088 40.336C86.616 39.616 87.36 39.064 88.32 38.68C89.296 38.28 90.432 38.08 91.728 38.08C93.68 38.08 95.496 38.44 97.176 39.16L96.864 41.656C95.936 41.24 95.048 40.944 94.2 40.768C93.368 40.592 92.536 40.504 91.704 40.504C90.632 40.504 89.784 40.696 89.16 41.08C88.536 41.448 88.224 41.968 88.224 42.64C88.224 43.216 88.48 43.68 88.992 44.032C89.504 44.384 90.416 44.712 91.728 45.016C93.168 45.336 94.312 45.728 95.16 46.192C96.024 46.656 96.64 47.216 97.008 47.872C97.392 48.512 97.584 49.296 97.584 50.224C97.584 51.824 97.008 53.08 95.856 53.992C94.72 54.904 93.104 55.36 91.008 55.36ZM105.92 55.36C104.672 55.36 103.576 55.096 102.632 54.568C101.704 54.024 100.976 53.264 100.448 52.288C99.9364 51.312 99.6804 50.184 99.6804 48.904C99.6804 47.608 99.9364 46.48 100.448 45.52C100.976 44.56 101.704 43.816 102.632 43.288C103.576 42.76 104.672 42.496 105.92 42.496C107.168 42.496 108.264 42.76 109.208 43.288C110.152 43.816 110.88 44.56 111.392 45.52C111.92 46.48 112.184 47.608 112.184 48.904C112.184 50.184 111.92 51.312 111.392 52.288C110.88 53.264 110.152 54.024 109.208 54.568C108.264 55.096 107.168 55.36 105.92 55.36ZM105.92 53.128C106.96 53.128 107.792 52.744 108.416 51.976C109.04 51.208 109.352 50.184 109.352 48.904C109.352 47.624 109.04 46.608 108.416 45.856C107.792 45.088 106.96 44.704 105.92 44.704C104.896 44.704 104.072 45.088 103.448 45.856C102.824 46.608 102.512 47.624 102.512 48.904C102.512 50.184 102.824 51.208 103.448 51.976C104.072 52.744 104.896 53.128 105.92 53.128ZM118.315 55.216C116.075 55.216 114.955 54.048 114.955 51.712V37.48H117.739V51.424C117.739 52 117.851 52.416 118.075 52.672C118.315 52.912 118.659 53.032 119.107 53.032C119.539 53.032 119.955 52.96 120.355 52.816L120.091 54.928C119.595 55.12 119.003 55.216 118.315 55.216ZM128.005 55.36C126.661 55.36 125.501 55.104 124.525 54.592C123.549 54.064 122.797 53.312 122.269 52.336C121.741 51.36 121.477 50.208 121.477 48.88C121.477 47.616 121.733 46.512 122.245 45.568C122.773 44.608 123.493 43.856 124.405 43.312C125.333 42.768 126.397 42.496 127.597 42.496C129.405 42.496 130.773 43.064 131.701 44.2C132.645 45.336 133.117 46.92 133.117 48.952V49.84H124.261C124.421 50.896 124.853 51.712 125.557 52.288C126.277 52.864 127.213 53.152 128.365 53.152C129.741 53.152 131.125 52.84 132.517 52.216L132.253 54.52C131.661 54.776 131.013 54.976 130.309 55.12C129.605 55.28 128.837 55.36 128.005 55.36ZM124.285 47.632H130.429C130.253 45.648 129.293 44.656 127.549 44.656C126.653 44.656 125.925 44.912 125.365 45.424C124.805 45.936 124.445 46.672 124.285 47.632ZM140.461 55.216C139.133 55.216 138.149 54.904 137.509 54.28C136.869 53.656 136.549 52.688 136.549 51.376V44.968H133.885L134.173 42.856H136.549V39.52H139.333V42.856H143.077V44.968H139.333V50.896C139.333 52.304 139.957 53.008 141.205 53.008C141.893 53.008 142.597 52.856 143.317 52.552L143.029 54.688C142.725 54.848 142.341 54.976 141.877 55.072C141.413 55.168 140.941 55.216 140.461 55.216ZM151.466 55.36C150.122 55.36 148.962 55.104 147.986 54.592C147.01 54.064 146.258 53.312 145.73 52.336C145.202 51.36 144.938 50.208 144.938 48.88C144.938 47.616 145.194 46.512 145.706 45.568C146.234 44.608 146.954 43.856 147.866 43.312C148.794 42.768 149.858 42.496 151.058 42.496C152.866 42.496 154.234 43.064 155.162 44.2C156.106 45.336 156.578 46.92 156.578 48.952V49.84H147.722C147.882 50.896 148.314 51.712 149.018 52.288C149.738 52.864 150.674 53.152 151.826 53.152C153.202 53.152 154.586 52.84 155.978 52.216L155.714 54.52C155.122 54.776 154.474 54.976 153.77 55.12C153.066 55.28 152.298 55.36 151.466 55.36ZM147.746 47.632H153.89C153.714 45.648 152.754 44.656 151.01 44.656C150.114 44.656 149.386 44.912 148.826 45.424C148.266 45.936 147.906 46.672 147.746 47.632Z" fill="#0B1741"></path>
<defs>
<filter id="filter0_d_2158_891" x="0" y="0" width="213" height="98" filterUnits="userSpaceOnUse" color-interpolation-filters="sRGB">
<feFlood flood-opacity="0" result="BackgroundImageFix"></feFlood>
<feColorMatrix in="SourceAlpha" type="matrix" values="0 0 0 0 0 0 0 0 0 0 0 0 0 0 0 0 0 0 127 0" result="hardAlpha"></feColorMatrix>
<feOffset dy="4"></feOffset>
<feGaussianBlur stdDeviation="8"></feGaussianBlur>
<feComposite in2="hardAlpha" operator="out"></feComposite>
<feColorMatrix type="matrix" values="0 0 0 0 0 0 0 0 0 0 0 0 0 0 0 0 0 0 0.32 0"></feColorMatrix>
<feBlend mode="normal" in2="BackgroundImageFix" result="effect1_dropShadow_2158_891"></feBlend>
<feBlend mode="normal" in="SourceGraphic" in2="effect1_dropShadow_2158_891" result="shape"></feBlend>
</filter>
<pattern id="pattern0_2158_891" patternContentUnits="objectBoundingBox" width="1" height="1">
<use xlink:href="#image0_2158_891" transform="scale(0.000403226 0.000462535)"></use>
</pattern>
<pattern id="pattern1_2158_891" patternContentUnits="objectBoundingBox" width="1" height="1">
<use xlink:href="#image1_2158_891" transform="scale(0.000403226 0.000462535)"></use>
</pattern>
<clipPath id="clip0_2158_891">
<rect width="39" height="39" fill="white" transform="translate(29 27)"></rect>
</clipPath>
<image id="image0_2158_891" width="2480" height="2162" preserveAspectRatio="none"></image>
<image id="image1_2158_891" width="2480" height="2162" preserveAspectRatio="none"></image>
</defs>
</svg>