<svg width="24" height="24" viewBox="0 0 24 24" fill="none" xmlns="http://www.w3.org/2000/svg">
<path d="M18.6472 17.6353L19.8294 18.5581C22.8792 14.6485 22.8814 8.74222 19.8323 4.50882L18.615 5.3848C21.2825 9.09085 21.2935 14.2412 18.6472 17.6353ZM16.5802 8.16068L17.8693 7.3931C19.4162 9.99026 19.4257 13.2466 17.8971 15.6856L16.6256 14.8887C17.8634 12.9185 17.8444 10.2788 16.5802 8.16068Z" fill="#001E37"></path>
<path d="M14.7865 2.88248C14.5674 2.31824 14.0517 1.99991 13.5208 2C13.2277 2 12.9301 2.09695 12.6752 2.30313L5.77634 7.88309H3.38086C2.5524 7.88309 1.88086 8.55463 1.88086 9.38309V14.617C1.88086 15.4454 2.5524 16.117 3.38086 16.117H5.7767C7.01001 17.1145 10.8825 20.2467 12.6754 21.6969C12.9303 21.9031 13.2278 22.0001 13.5208 22.0001C14.0516 22.0001 14.5675 21.6815 14.7865 21.1175C16.2474 17.3546 16.2473 6.64529 14.7865 2.88248ZM5.37744 14.617H3.38086V9.38309H5.37744V14.617ZM13.4538 20.3972L6.88211 15.082V8.918L13.4538 3.60263C14.7042 7.14911 14.7042 16.8508 13.4538 20.3972Z" fill="#001E37"></path>
</svg>