<svg width="123" height="123" viewBox="0 0 123 123" fill="none" xmlns="http://www.w3.org/2000/svg">
<path d="M60.5185 107.965C56.7561 108.129 53.0046 107.764 49.2585 107.545C47.3937 107.436 45.4797 107.321 43.6532 106.759C43.5383 106.726 43.4125 106.693 43.2977 106.699C41.2579 106.852 39.2564 106.317 37.233 106.36C35.4338 106.404 33.6893 106.846 31.9229 107.179C30.255 107.49 28.6198 107.862 27.0831 108.572C25.798 109.161 24.7152 110.292 23.3043 110.488C21.6309 110.723 19.8919 111.078 18.3989 109.56C16.8568 107.998 15.3748 106.377 13.7834 104.864C12.81 103.936 12.0772 102.855 11.41 101.703C10.5077 100.141 9.33736 98.6944 8.69206 97.04C7.80067 94.7631 8.09598 93.6712 9.8022 92.328C13.149 89.7017 16.1349 86.6768 19.2575 83.7993C22.1504 81.1348 24.6277 78.0554 26.9574 74.8667C29.5823 71.274 31.9557 67.4901 34.8213 64.0721C37.2166 61.211 39.8196 58.541 42.3298 55.7836C45.3266 52.4912 48.8429 49.8541 52.66 47.621C53.71 47.0094 54.8366 46.4304 56.149 46.4141C58.4732 46.3813 59.8677 48.0303 60.3982 49.7448C60.9724 51.5957 60.2177 53.1574 59.6052 54.79C58.5935 57.4709 56.8545 59.7257 55.3561 62.1227C54.41 63.6297 53.2452 64.9237 51.9218 66.114C50.3468 67.5227 49.9749 69.1443 50.7515 70.5639C51.4241 71.7979 52.66 72.2732 53.9124 72.5571C55.7881 72.9884 57.724 73.4525 59.638 73.1959C63.395 72.6935 67.2067 73.2831 70.9363 72.5515C72.8448 72.1747 74.7971 72.3713 76.6893 71.9727C77.8705 71.727 79.0682 71.4432 80.1728 70.9791C81.5619 70.3894 83.0275 70.0562 84.422 69.4829C89.1906 67.5172 93.4562 64.9346 96.5296 60.6102C98.985 57.154 101.659 53.8563 104.24 50.4928C105.055 49.4336 106.122 48.6747 107.303 48.1014C107.822 47.8448 108.271 48.0577 108.621 48.5437C109.315 49.5047 109.392 50.6347 109.496 51.7376C109.786 54.8007 108.752 57.438 106.882 59.8459C104.651 62.7179 102.512 65.6609 100.336 68.5711C100.194 68.7622 100.008 68.9424 100.008 69.2045C100.008 69.5212 99.86 69.8979 100.248 70.0945C100.615 70.2801 100.959 70.2036 101.222 69.8814C102.906 67.8448 104.918 66.1032 106.554 64.0175C108.003 62.172 109.381 60.2827 110.464 58.1969C110.808 57.5308 111.393 57.4871 112 57.4816C112.607 57.4816 112.793 58.0059 112.903 58.4427C113.143 59.4092 113.296 60.3921 113.466 61.3749C113.712 62.7781 112.974 63.9245 112.312 65.0002C109.676 69.3082 106.406 73.0484 102.184 75.9041C100.812 76.8323 99.5209 77.8807 98.1647 78.8362C97.8475 79.06 97.6616 79.3493 97.4866 79.6496C97.2241 80.0809 97.2678 80.5123 97.6616 80.8781C98.0553 81.2494 98.3889 81.1348 98.7772 80.84C102.589 77.897 106.772 75.3854 109.879 71.6016C111.251 69.9308 112.542 68.1888 113.718 66.3652C113.816 66.2178 113.838 66.0105 114.084 66.0487C114.253 66.076 114.221 66.2232 114.237 66.3324C114.418 67.3698 114.647 68.4075 114.762 69.4503C114.948 71.132 114.423 72.6935 113.614 74.1186C111.984 76.9742 109.868 79.4695 107.56 81.8064C104.705 84.7057 101.73 87.4575 98.3561 89.7507C98.2358 89.8326 98.0881 89.9036 98.0061 90.0237C97.7108 90.4441 96.885 90.7226 97.2131 91.285C97.5085 91.7928 98.2795 91.558 98.8045 91.4106C100.161 91.0393 101.287 90.2257 102.408 89.4121C105.728 87.0042 108.626 84.1596 111.273 81.0474C111.88 80.3376 112.684 79.9827 113.471 79.6005C113.909 79.3876 114.226 79.4803 114.27 80.1409C114.39 82.0028 113.586 83.5316 112.7 85.055C110.442 88.9426 107.21 91.8529 103.584 94.4464C100.467 96.6741 97.3608 98.8909 94.0468 100.818C92.696 101.605 91.214 102.003 89.7703 102.456C87.9328 103.03 86.2266 103.887 84.4329 104.548C82.3603 105.312 80.3205 106.098 78.0947 106.42C76.0823 106.71 74.0534 106.966 72.0628 107.343C70.3347 107.671 68.5957 107.343 66.9223 107.682C64.7786 108.108 62.6403 107.813 60.5075 107.965H60.5185Z" fill="#FCB300"></path>
<path d="M68.8965 24.0223C69.159 20.8227 69.7113 17.8032 71.9042 15.3134C73.3972 13.6263 75.0378 12.8457 77.3346 13.621C78.9479 14.167 80.5721 14.5654 81.633 16.0396C81.983 16.5256 82.1088 16.067 82.2564 15.8541C83.2845 14.4017 84.5478 13.2332 86.2649 12.6271C87.5337 12.1794 88.8625 12.2284 90.1039 12.5506C93.9265 13.5334 96.1085 17.1318 95.5671 21.0958C95.146 24.1589 94.1288 27.0089 92.789 29.7607C91.1922 33.0422 89.9344 36.4985 87.8016 39.507C86.4454 41.4235 85.1767 43.4056 83.4705 45.0436C83.0658 45.4313 82.8853 45.9554 82.59 46.4086C82.0048 47.2986 81.2885 48.0412 80.1346 48.0029C79.0244 47.9647 78.3846 47.2275 77.8651 46.3103C74.8683 41.0304 72.4511 35.483 70.198 29.8591C69.4434 27.9645 69.0551 25.9878 68.8965 24.0167V24.0223Z" fill="#001E37"></path>
</svg>