<svg width="24" height="24" viewBox="0 0 24 24" fill="none" xmlns="http://www.w3.org/2000/svg">
<mask id="mask0_258_19742" style="mask-type:alpha" maskUnits="userSpaceOnUse" x="0" y="0" width="24" height="24">
<rect width="24" height="24" fill="#D9D9D9"></rect>
</mask>
<g mask="url(#mask0_258_19742)">
<path d="M7.99778 16.8842C7.75295 16.8842 7.54428 16.7997 7.37178 16.6305C7.19945 16.4613 7.11328 16.2511 7.11328 15.9997C7.11328 15.7549 7.19945 15.5462 7.37178 15.3737C7.54428 15.2014 7.75295 15.1152 7.99778 15.1152H15.9978C16.2426 15.1152 16.4513 15.1998 16.6238 15.369C16.7961 15.5382 16.8823 15.7484 16.8823 15.9997C16.8823 16.2446 16.7961 16.4532 16.6238 16.6257C16.4513 16.7981 16.2426 16.8842 15.9978 16.8842H7.99778ZM3.37178 8.62573C3.19945 8.45323 3.11328 8.24457 3.11328 7.99973C3.11328 7.7549 3.19945 7.54624 3.37178 7.37374C3.54428 7.2014 3.75295 7.11523 3.99778 7.11523C4.24261 7.11523 4.45128 7.2014 4.62378 7.37374C4.79611 7.54624 4.88228 7.7549 4.88228 7.99973C4.88228 8.24457 4.79611 8.45323 4.62378 8.62573C4.45128 8.79807 4.24261 8.88423 3.99778 8.88423C3.75295 8.88423 3.54428 8.79807 3.37178 8.62573ZM7.37178 8.62573C7.19945 8.45323 7.11328 8.24457 7.11328 7.99973C7.11328 7.7549 7.19945 7.54624 7.37178 7.37374C7.54428 7.2014 7.75295 7.11523 7.99778 7.11523C8.24261 7.11523 8.45128 7.2014 8.62378 7.37374C8.79612 7.54624 8.88228 7.7549 8.88228 7.99973C8.88228 8.24457 8.79612 8.45323 8.62378 8.62573C8.45128 8.79807 8.24261 8.88423 7.99778 8.88423C7.75295 8.88423 7.54428 8.79807 7.37178 8.62573ZM11.3718 8.62573C11.1994 8.45323 11.1133 8.24457 11.1133 7.99973C11.1133 7.7549 11.1994 7.54624 11.3718 7.37374C11.5443 7.2014 11.7529 7.11523 11.9978 7.11523C12.2426 7.11523 12.4513 7.2014 12.6238 7.37374C12.7961 7.54624 12.8823 7.7549 12.8823 7.99973C12.8823 8.24457 12.7961 8.45323 12.6238 8.62573C12.4513 8.79807 12.2426 8.88423 11.9978 8.88423C11.7529 8.88423 11.5443 8.79807 11.3718 8.62573ZM15.3718 8.62573C15.1994 8.45323 15.1133 8.24457 15.1133 7.99973C15.1133 7.7549 15.1994 7.54624 15.3718 7.37374C15.5443 7.2014 15.7529 7.11523 15.9978 7.11523C16.2426 7.11523 16.4513 7.2014 16.6238 7.37374C16.7961 7.54624 16.8823 7.7549 16.8823 7.99973C16.8823 8.24457 16.7961 8.45323 16.6238 8.62573C16.4513 8.79807 16.2426 8.88423 15.9978 8.88423C15.7529 8.88423 15.5443 8.79807 15.3718 8.62573ZM19.3718 8.62573C19.1994 8.45323 19.1133 8.24457 19.1133 7.99973C19.1133 7.7549 19.1994 7.54624 19.3718 7.37374C19.5443 7.2014 19.7529 7.11523 19.9978 7.11523C20.2426 7.11523 20.4513 7.2014 20.6238 7.37374C20.7961 7.54624 20.8823 7.7549 20.8823 7.99973C20.8823 8.24457 20.7961 8.45323 20.6238 8.62573C20.4513 8.79807 20.2426 8.88423 19.9978 8.88423C19.7529 8.88423 19.5443 8.79807 19.3718 8.62573ZM19.3718 12.6257C19.1994 12.4532 19.1133 12.2446 19.1133 11.9997C19.1133 11.7549 19.1994 11.5462 19.3718 11.3737C19.5443 11.2014 19.7529 11.1152 19.9978 11.1152C20.2426 11.1152 20.4513 11.2014 20.6238 11.3737C20.7961 11.5462 20.8823 11.7549 20.8823 11.9997C20.8823 12.2446 20.7961 12.4532 20.6238 12.6257C20.4513 12.7981 20.2426 12.8842 19.9978 12.8842C19.7529 12.8842 19.5443 12.7981 19.3718 12.6257ZM15.3718 12.6257C15.1994 12.4532 15.1133 12.2446 15.1133 11.9997C15.1133 11.7549 15.1994 11.5462 15.3718 11.3737C15.5443 11.2014 15.7529 11.1152 15.9978 11.1152C16.2426 11.1152 16.4513 11.2014 16.6238 11.3737C16.7961 11.5462 16.8823 11.7549 16.8823 11.9997C16.8823 12.2446 16.7961 12.4532 16.6238 12.6257C16.4513 12.7981 16.2426 12.8842 15.9978 12.8842C15.7529 12.8842 15.5443 12.7981 15.3718 12.6257ZM11.3718 12.6257C11.1994 12.4532 11.1133 12.2446 11.1133 11.9997C11.1133 11.7549 11.1994 11.5462 11.3718 11.3737C11.5443 11.2014 11.7529 11.1152 11.9978 11.1152C12.2426 11.1152 12.4513 11.2014 12.6238 11.3737C12.7961 11.5462 12.8823 11.7549 12.8823 11.9997C12.8823 12.2446 12.7961 12.4532 12.6238 12.6257C12.4513 12.7981 12.2426 12.8842 11.9978 12.8842C11.7529 12.8842 11.5443 12.7981 11.3718 12.6257ZM7.37178 12.6257C7.19945 12.4532 7.11328 12.2446 7.11328 11.9997C7.11328 11.7549 7.19945 11.5462 7.37178 11.3737C7.54428 11.2014 7.75295 11.1152 7.99778 11.1152C8.24261 11.1152 8.45128 11.2014 8.62378 11.3737C8.79612 11.5462 8.88228 11.7549 8.88228 11.9997C8.88228 12.2446 8.79612 12.4532 8.62378 12.6257C8.45128 12.7981 8.24261 12.8842 7.99778 12.8842C7.75295 12.8842 7.54428 12.7981 7.37178 12.6257ZM3.37178 12.6257C3.19945 12.4532 3.11328 12.2446 3.11328 11.9997C3.11328 11.7549 3.19945 11.5462 3.37178 11.3737C3.54428 11.2014 3.75295 11.1152 3.99778 11.1152C4.24261 11.1152 4.45128 11.2014 4.62378 11.3737C4.79611 11.5462 4.88228 11.7549 4.88228 11.9997C4.88228 12.2446 4.79611 12.4532 4.62378 12.6257C4.45128 12.7981 4.24261 12.8842 3.99778 12.8842C3.75295 12.8842 3.54428 12.7981 3.37178 12.6257Z" fill="#001E37"></path>
</g>
</svg>