<svg width="24" height="24" viewBox="0 0 24 24" fill="none" xmlns="http://www.w3.org/2000/svg">
<path d="M11.5 14.4988H12.5118C14.1655 14.4988 15.5059 13.1584 15.5059 11.5048V4.99512C15.5059 3.34149 14.1655 2.00098 12.5118 2.00098H11.5C9.84637 2.00098 8.50595 3.34149 8.50595 4.99512V11.5048C8.50595 13.1584 9.84637 14.4988 11.5 14.4988ZM10.006 4.99512C10.006 4.17123 10.6761 3.50098 11.5 3.50098H12.5118C13.3357 3.50098 14.0059 4.17123 14.0059 4.99512V11.5048C14.0059 12.3287 13.3357 12.9988 12.5118 12.9988H11.5C10.6761 12.9988 10.006 12.3287 10.006 11.5048V4.99512ZM12.7559 17.3775V20.4988H15.5064C16.0064 21.4005 16.0055 21.9988 16.0055 21.9988H8.00635C8.00635 21.9988 8.00534 21.4005 8.5054 20.4988H11.2559V17.4395C7.64352 17.2099 5.26151 14.2549 5.25977 10.9989H6.75977C6.7616 13.416 8.48965 15.9835 11.6917 15.9835C14.4637 15.9835 16.8924 13.718 17.2393 10.9989H18.7404C18.4254 14.2561 15.8404 16.8735 12.7559 17.3775Z" fill="#001E37"></path>
</svg>